<svg width="455" height="354" viewBox="0 0 455 354" fill="none" xmlns="http://www.w3.org/2000/svg">
<g clip-path="url(#clip0)">
<path d="M210.111 335.795C209.438 335.794 208.778 335.559 208.193 335.112L97.3436 250.71C96.4426 250.022 95.781 248.881 95.5039 247.536C95.2268 246.192 95.3569 244.755 95.8656 243.54L183.174 35.5617C183.426 34.9601 183.764 34.4314 184.168 34.0057C184.572 33.5801 185.035 33.2659 185.529 33.081C186.024 32.8961 186.54 32.8443 187.049 32.9284C187.559 33.0125 188.051 33.2309 188.497 33.5711L299.347 117.973C300.248 118.661 300.909 119.802 301.187 121.146C301.464 122.49 301.334 123.927 300.825 125.142L213.517 333.12C213.265 333.723 212.928 334.253 212.523 334.679C212.119 335.105 211.656 335.418 211.161 335.601C210.819 335.73 210.466 335.795 210.111 335.795Z" fill="#E6E6E6"/>
<path d="M180.082 43.7099L179.636 44.771L296.789 133.972L297.234 132.911L180.082 43.7099Z" fill="white"/>
<path d="M172.064 62.8099L171.618 63.871L288.771 153.072L289.216 152.011L172.064 62.8099Z" fill="white"/>
<path d="M164.046 81.9099L163.6 82.9709L280.753 172.172L281.198 171.111L164.046 81.9099Z" fill="white"/>
<path d="M156.027 101.01L155.582 102.071L272.735 191.272L273.18 190.211L156.027 101.01Z" fill="white"/>
<path d="M148.009 120.11L147.564 121.171L264.717 210.372L265.162 209.311L148.009 120.11Z" fill="white"/>
<path d="M139.991 139.21L139.546 140.271L256.699 229.472L257.144 228.411L139.991 139.21Z" fill="white"/>
<path d="M131.973 158.31L131.528 159.371L248.68 248.572L249.126 247.511L131.973 158.31Z" fill="white"/>
<path d="M123.955 177.41L123.51 178.471L240.662 267.672L241.108 266.611L123.955 177.41Z" fill="white"/>
<path d="M115.937 196.51L115.492 197.571L232.644 286.772L233.09 285.711L115.937 196.51Z" fill="white"/>
<path d="M107.919 215.61L107.474 216.671L224.626 305.872L225.072 304.811L107.919 215.61Z" fill="white"/>
<path d="M99.901 234.71L99.4556 235.771L216.608 324.972L217.054 323.911L99.901 234.71Z" fill="white"/>
<path d="M199.799 304.162C199.126 304.162 198.466 303.926 197.881 303.479L87.0316 219.077C86.1306 218.389 85.469 217.248 85.1919 215.904C84.9148 214.56 85.0449 213.122 85.5535 211.907L172.862 3.92902C173.114 3.32743 173.452 2.79871 173.856 2.37306C174.26 1.94741 174.723 1.63318 175.217 1.44832C175.712 1.26346 176.228 1.2116 176.737 1.29569C177.247 1.37978 177.739 1.59818 178.185 1.93841L289.035 86.3403C289.936 87.0282 290.597 88.1693 290.875 89.5133C291.152 90.8574 291.022 92.2946 290.513 93.5098L203.205 301.488C202.953 302.09 202.616 302.62 202.211 303.046C201.807 303.472 201.344 303.785 200.849 303.969C200.507 304.097 200.154 304.162 199.799 304.162Z" fill="#F2F2F2"/>
<path d="M169.77 12.0771L169.325 13.1382L286.477 102.339L286.923 101.278L169.77 12.0771Z" fill="white"/>
<path d="M161.752 31.1772L161.307 32.2383L278.459 121.439L278.905 120.378L161.752 31.1772Z" fill="white"/>
<path d="M153.734 50.2772L153.289 51.3383L270.441 140.539L270.887 139.478L153.734 50.2772Z" fill="white"/>
<path d="M145.716 69.3771L145.271 70.4382L262.423 159.639L262.869 158.578L145.716 69.3771Z" fill="white"/>
<path d="M137.698 88.4772L137.252 89.5383L254.405 178.739L254.851 177.678L137.698 88.4772Z" fill="white"/>
<path d="M129.68 107.577L129.234 108.638L246.387 197.839L246.832 196.778L129.68 107.577Z" fill="white"/>
<path d="M121.661 126.677L121.216 127.738L238.368 216.939L238.814 215.878L121.661 126.677Z" fill="white"/>
<path d="M113.643 145.777L113.198 146.838L230.35 236.04L230.796 234.978L113.643 145.777Z" fill="white"/>
<path d="M105.625 164.877L105.18 165.938L222.332 255.14L222.778 254.078L105.625 164.877Z" fill="white"/>
<path d="M97.6071 183.977L97.1616 185.038L214.314 274.24L214.76 273.178L97.6071 183.977Z" fill="white"/>
<path d="M89.589 203.077L89.1436 204.138L206.296 293.34L206.742 292.278L89.589 203.077Z" fill="white"/>
<path d="M188.752 0H11.5972V331.758H188.752C189.389 331.758 189.999 331.418 190.449 330.812C190.899 330.206 191.152 329.384 191.152 328.527V3.23141C191.152 2.37439 190.899 1.55249 190.449 0.946483C189.999 0.340481 189.389 1.84152e-05 188.752 0ZM21.5946 322.602C20.7246 322.602 19.8741 322.255 19.1507 321.604C18.4273 320.953 17.8635 320.028 17.5306 318.945C17.1976 317.863 17.1105 316.672 17.2803 315.522C17.45 314.373 17.8689 313.318 18.4841 312.489C19.0993 311.66 19.8831 311.096 20.7364 310.868C21.5897 310.639 22.4742 310.756 23.278 311.205C24.0818 311.653 24.7688 312.412 25.2522 313.387C25.7355 314.361 25.9935 315.506 25.9935 316.678C25.9935 317.456 25.8797 318.226 25.6587 318.945C25.4376 319.664 25.1136 320.317 24.7051 320.867C24.2966 321.417 23.8117 321.854 23.278 322.151C22.7443 322.449 22.1723 322.602 21.5946 322.602ZM21.5946 292.443C20.7246 292.443 19.8741 292.095 19.1507 291.444C18.4273 290.793 17.8635 289.868 17.5306 288.785C17.1976 287.703 17.1105 286.512 17.2803 285.362C17.45 284.213 17.8689 283.158 18.4841 282.329C19.0993 281.501 19.8832 280.936 20.7365 280.708C21.5898 280.479 22.4742 280.597 23.278 281.045C24.0818 281.493 24.7688 282.253 25.2522 283.227C25.7355 284.201 25.9935 285.347 25.9935 286.518C25.9935 287.296 25.8797 288.067 25.6587 288.785C25.4376 289.504 25.1136 290.157 24.7051 290.707C24.2966 291.257 23.8117 291.694 23.278 291.992C22.7443 292.289 22.1723 292.443 21.5946 292.443ZM21.5946 262.283C20.7246 262.283 19.8741 261.935 19.1507 261.284C18.4273 260.633 17.8635 259.708 17.5306 258.626C17.1976 257.543 17.1105 256.352 17.2803 255.203C17.45 254.053 17.8689 252.998 18.4841 252.169C19.0993 251.341 19.8832 250.777 20.7365 250.548C21.5898 250.319 22.4742 250.437 23.278 250.885C24.0818 251.334 24.7688 252.093 25.2522 253.067C25.7355 254.041 25.9935 255.187 25.9935 256.358C25.9935 257.136 25.8797 257.907 25.6587 258.626C25.4376 259.344 25.1136 259.997 24.7051 260.548C24.2966 261.098 23.8117 261.534 23.278 261.832C22.7443 262.129 22.1723 262.283 21.5946 262.283ZM21.5946 232.123C20.7246 232.123 19.8741 231.775 19.1507 231.124C18.4273 230.474 17.8635 229.548 17.5306 228.466C17.1976 227.383 17.1105 226.192 17.2803 225.043C17.45 223.894 17.8689 222.838 18.4841 222.01C19.0993 221.181 19.8832 220.617 20.7365 220.388C21.5898 220.16 22.4742 220.277 23.278 220.725C24.0818 221.174 24.7688 221.933 25.2522 222.907C25.7355 223.882 25.9935 225.027 25.9935 226.199C25.9935 226.977 25.8797 227.747 25.6587 228.466C25.4376 229.185 25.1136 229.838 24.7051 230.388C24.2966 230.938 23.8117 231.374 23.278 231.672C22.7443 231.97 22.1723 232.123 21.5946 232.123ZM21.5946 201.963C20.7246 201.963 19.8741 201.616 19.1507 200.965C18.4273 200.314 17.8635 199.388 17.5306 198.306C17.1976 197.223 17.1105 196.032 17.2803 194.883C17.45 193.734 17.8689 192.678 18.4841 191.85C19.0993 191.021 19.8832 190.457 20.7365 190.228C21.5898 190 22.4742 190.117 23.278 190.566C24.0818 191.014 24.7688 191.773 25.2522 192.747C25.7355 193.722 25.9935 194.867 25.9935 196.039C25.9935 196.817 25.8797 197.587 25.6587 198.306C25.4376 199.025 25.1136 199.678 24.7051 200.228C24.2966 200.778 23.8117 201.214 23.278 201.512C22.7443 201.81 22.1723 201.963 21.5946 201.963ZM21.5946 171.803C20.7246 171.803 19.8741 171.456 19.1507 170.805C18.4273 170.154 17.8635 169.229 17.5306 168.146C17.1976 167.064 17.1105 165.872 17.2803 164.723C17.45 163.574 17.8689 162.518 18.4841 161.69C19.0993 160.861 19.8832 160.297 20.7365 160.069C21.5898 159.84 22.4742 159.957 23.278 160.406C24.0818 160.854 24.7688 161.613 25.2522 162.588C25.7355 163.562 25.9935 164.707 25.9935 165.879C25.9935 166.657 25.8797 167.427 25.6587 168.146C25.4376 168.865 25.1136 169.518 24.7051 170.068C24.2966 170.618 23.8117 171.055 23.278 171.352C22.7443 171.65 22.1723 171.803 21.5946 171.803ZM21.5946 141.643C20.7246 141.643 19.8741 141.296 19.1507 140.645C18.4273 139.994 17.8635 139.069 17.5306 137.986C17.1976 136.904 17.1105 135.713 17.2803 134.563C17.45 133.414 17.8689 132.359 18.4841 131.53C19.0993 130.702 19.8832 130.137 20.7365 129.909C21.5898 129.68 22.4742 129.798 23.278 130.246C24.0818 130.694 24.7688 131.454 25.2522 132.428C25.7355 133.402 25.9935 134.547 25.9935 135.719C25.9935 136.497 25.8797 137.268 25.6587 137.986C25.4376 138.705 25.1136 139.358 24.7051 139.908C24.2966 140.458 23.8117 140.895 23.278 141.192C22.7443 141.49 22.1723 141.643 21.5946 141.643ZM21.5946 111.484C20.7246 111.484 19.8741 111.136 19.1507 110.485C18.4273 109.834 17.8635 108.909 17.5306 107.826C17.1976 106.744 17.1105 105.553 17.2803 104.404C17.45 103.254 17.8689 102.199 18.4841 101.37C19.0993 100.542 19.8832 99.9775 20.7365 99.749C21.5898 99.5204 22.4742 99.6377 23.278 100.086C24.0818 100.534 24.7688 101.294 25.2522 102.268C25.7355 103.242 25.9935 104.388 25.9935 105.559C25.9935 106.337 25.8797 107.108 25.6587 107.826C25.4376 108.545 25.1136 109.198 24.7051 109.748C24.2966 110.299 23.8117 110.735 23.278 111.033C22.7443 111.33 22.1723 111.484 21.5946 111.484ZM21.5946 81.3238C20.7246 81.3238 19.8741 80.9764 19.1507 80.3254C18.4273 79.6744 17.8635 78.7492 17.5306 77.6667C17.1976 76.5841 17.1105 75.393 17.2803 74.2438C17.45 73.0946 17.8689 72.039 18.4841 71.2105C19.0993 70.3819 19.8832 69.8177 20.7365 69.5891C21.5898 69.3605 22.4742 69.4779 23.278 69.9263C24.0818 70.3746 24.7688 71.134 25.2522 72.1082C25.7355 73.0825 25.9935 74.2278 25.9935 75.3995C25.9935 76.1775 25.8797 76.9479 25.6587 77.6667C25.4376 78.3854 25.1136 79.0385 24.7051 79.5886C24.2966 80.1388 23.8117 80.5751 23.278 80.8728C22.7443 81.1706 22.1723 81.3238 21.5946 81.3238ZM21.5946 51.164C20.7246 51.164 19.8741 50.8165 19.1507 50.1656C18.4273 49.5146 17.8635 48.5894 17.5306 47.5068C17.1976 46.4243 17.1105 45.2332 17.2803 44.084C17.45 42.9348 17.8689 41.8792 18.4841 41.0506C19.0993 40.2221 19.8831 39.6579 20.7364 39.4293C21.5897 39.2007 22.4742 39.318 23.278 39.7664C24.0818 40.2148 24.7688 40.9741 25.2522 41.9484C25.7355 42.9226 25.9935 44.068 25.9935 45.2397C25.9935 46.0177 25.8797 46.7881 25.6587 47.5068C25.4376 48.2256 25.1136 48.8787 24.7051 49.4288C24.2966 49.9789 23.8117 50.4153 23.278 50.713C22.7443 51.0108 22.1723 51.164 21.5946 51.164ZM21.5946 21.0042C20.7246 21.0042 19.8741 20.6567 19.1507 20.0057C18.4273 19.3548 17.8635 18.4296 17.5306 17.347C17.1976 16.2645 17.1105 15.0733 17.2803 13.9241C17.45 12.775 17.8689 11.7194 18.4841 10.8908C19.0993 10.0623 19.8831 9.49808 20.7364 9.26949C21.5897 9.0409 22.4742 9.15822 23.278 9.60661C24.0818 10.055 24.7688 10.8143 25.2522 11.7886C25.7355 12.7628 25.9935 13.9082 25.9935 15.0799C25.9935 15.8579 25.8797 16.6283 25.6587 17.347C25.4376 18.0658 25.1136 18.7189 24.7051 19.269C24.2966 19.8191 23.8117 20.2555 23.278 20.5532C22.7443 20.8509 22.1723 21.0042 21.5946 21.0042Z" fill="#3F3D56"/>
<path d="M11.5971 18.3113C10.4101 18.3113 0 18.2359 0 15.6185C0 13.0011 10.4101 12.9257 11.5971 12.9257V14.0028C5.46565 14.0028 1.48995 14.9271 0.849684 15.6185C1.48995 16.3099 5.46565 17.2342 11.5971 17.2342C17.7148 17.2342 21.6864 16.3138 22.34 15.6232C22.029 15.3274 20.7583 14.7073 17.3499 14.3105L17.4187 13.2376C23.1941 13.9097 23.1941 15.1512 23.1941 15.6185C23.1941 18.2359 12.7841 18.3113 11.5971 18.3113Z" fill="#2F2E41"/>
<path d="M11.5971 47.9325C10.4101 47.9325 0 47.8571 0 45.2397C0 42.6223 10.4101 42.5469 11.5971 42.5469V43.624C5.46565 43.624 1.48995 44.5484 0.849684 45.2397C1.48995 45.9311 5.46565 46.8554 11.5971 46.8554C17.7148 46.8554 21.6864 45.935 22.34 45.2445C22.029 44.9486 20.7583 44.3286 17.3499 43.9317L17.4187 42.8588C23.1941 43.531 23.1941 44.7724 23.1941 45.2397C23.1941 47.8571 12.7841 47.9325 11.5971 47.9325Z" fill="#2F2E41"/>
<path d="M11.5971 78.0923C10.4101 78.0923 0 78.0169 0 75.3995C0 72.7821 10.4101 72.7067 11.5971 72.7067V73.7838C5.46565 73.7838 1.48995 74.7081 0.849684 75.3995C1.48995 76.0909 5.46565 77.0152 11.5971 77.0152C17.7148 77.0152 21.6864 76.0948 22.34 75.4042C22.029 75.1084 20.7583 74.4883 17.3499 74.0915L17.4187 73.0186C23.1941 73.6907 23.1941 74.9322 23.1941 75.3995C23.1941 78.0169 12.7841 78.0923 11.5971 78.0923Z" fill="#2F2E41"/>
<path d="M11.5971 108.252C10.4101 108.252 0 108.177 0 105.559C0 102.942 10.4101 102.866 11.5971 102.866V103.944C5.46565 103.944 1.48995 104.868 0.849684 105.559C1.48995 106.251 5.46565 107.175 11.5971 107.175C17.7148 107.175 21.6864 106.255 22.34 105.564C22.029 105.268 20.7583 104.648 17.3499 104.251L17.4187 103.178C23.1941 103.851 23.1941 105.092 23.1941 105.559C23.1941 108.177 12.7841 108.252 11.5971 108.252Z" fill="#2F2E41"/>
<path d="M11.5971 138.412C10.4101 138.412 0 138.337 0 135.719C0 133.102 10.4101 133.026 11.5971 133.026V134.104C5.46565 134.104 1.48995 135.028 0.849684 135.719C1.48995 136.411 5.46565 137.335 11.5971 137.335C17.7148 137.335 21.6864 136.414 22.34 135.724C22.029 135.428 20.7583 134.808 17.3499 134.411L17.4187 133.338C23.1941 134.01 23.1941 135.252 23.1941 135.719C23.1941 138.337 12.7841 138.412 11.5971 138.412Z" fill="#2F2E41"/>
<path d="M11.5971 168.572C10.4101 168.572 0 168.496 0 165.879C0 163.262 10.4101 163.186 11.5971 163.186V164.263C5.46565 164.263 1.48995 165.188 0.849684 165.879C1.48995 166.57 5.46565 167.495 11.5971 167.495C17.7148 167.495 21.6864 166.574 22.34 165.884C22.029 165.588 20.7583 164.968 17.3499 164.571L17.4187 163.498C23.1941 164.17 23.1941 165.412 23.1941 165.879C23.1941 168.496 12.7841 168.572 11.5971 168.572Z" fill="#2F2E41"/>
<path d="M11.5971 198.732C10.4101 198.732 0 198.656 0 196.039C0 193.421 10.4101 193.346 11.5971 193.346V194.423C5.46565 194.423 1.48995 195.347 0.849684 196.039C1.48995 196.73 5.46565 197.655 11.5971 197.655C17.7148 197.655 21.6864 196.734 22.34 196.044C22.029 195.748 20.7583 195.128 17.3499 194.731L17.4187 193.658C23.1941 194.33 23.1941 195.572 23.1941 196.039C23.1941 198.656 12.7841 198.732 11.5971 198.732Z" fill="#2F2E41"/>
<path d="M11.5971 228.891C10.4101 228.891 0 228.816 0 226.199C0 223.581 10.4101 223.506 11.5971 223.506V224.583C5.46565 224.583 1.48995 225.507 0.849684 226.199C1.48995 226.89 5.46565 227.814 11.5971 227.814C17.7148 227.814 21.6864 226.894 22.34 226.203C22.029 225.907 20.7583 225.287 17.3499 224.891L17.4187 223.818C23.1941 224.49 23.1941 225.731 23.1941 226.199C23.1941 228.816 12.7841 228.891 11.5971 228.891Z" fill="#2F2E41"/>
<path d="M11.5971 259.051C10.4101 259.051 0 258.976 0 256.358C0 253.741 10.4101 253.666 11.5971 253.666V254.743C5.46565 254.743 1.48995 255.667 0.849684 256.358C1.48995 257.05 5.46565 257.974 11.5971 257.974C17.7148 257.974 21.6864 257.054 22.34 256.363C22.029 256.067 20.7583 255.447 17.3499 255.05L17.4187 253.977C23.1941 254.65 23.1941 255.891 23.1941 256.358C23.1941 258.976 12.7841 259.051 11.5971 259.051Z" fill="#2F2E41"/>
<path d="M11.5971 289.211C10.4101 289.211 0 289.136 0 286.518C0 283.901 10.4101 283.825 11.5971 283.825V284.903C5.46565 284.903 1.48995 285.827 0.849684 286.518C1.48995 287.21 5.46565 288.134 11.5971 288.134C17.7148 288.134 21.6864 287.214 22.34 286.523C22.029 286.227 20.7583 285.607 17.3499 285.21L17.4187 284.137C23.1941 284.809 23.1941 286.051 23.1941 286.518C23.1941 289.136 12.7841 289.211 11.5971 289.211Z" fill="#2F2E41"/>
<path d="M11.5971 319.371C10.4101 319.371 0 319.295 0 316.678C0 314.061 10.4101 313.985 11.5971 313.985V315.062C5.46565 315.062 1.48995 315.987 0.849684 316.678C1.48995 317.369 5.46565 318.294 11.5971 318.294C17.7148 318.294 21.6864 317.373 22.34 316.683C22.029 316.387 20.7583 315.767 17.3499 315.37L17.4187 314.297C23.1941 314.969 23.1941 316.211 23.1941 316.678C23.1941 319.295 12.7841 319.371 11.5971 319.371Z" fill="#2F2E41"/>
<path d="M152.561 126.833H64.5837C63.8946 126.832 63.2339 126.463 62.7466 125.806C62.2593 125.15 61.9852 124.26 61.9844 123.332V77.0152C61.9852 76.0871 62.2593 75.1973 62.7466 74.541C63.2339 73.8848 63.8946 73.5156 64.5837 73.5145H152.561C153.251 73.5156 153.911 73.8847 154.399 74.541C154.886 75.1973 155.16 76.0871 155.161 77.0152V123.332C155.16 124.26 154.886 125.15 154.399 125.806C153.911 126.463 153.251 126.832 152.561 126.833Z" fill="white"/>
<path d="M119.77 89.4023H97.3755C96.8452 89.4023 96.3366 89.1186 95.9616 88.6136C95.5866 88.1086 95.376 87.4236 95.376 86.7094C95.376 85.9952 95.5866 85.3103 95.9616 84.8053C96.3366 84.3003 96.8452 84.0166 97.3755 84.0166H119.77C120.3 84.0166 120.809 84.3003 121.184 84.8053C121.559 85.3103 121.769 85.9952 121.769 86.7094C121.769 87.4236 121.559 88.1086 121.184 88.6136C120.809 89.1186 120.3 89.4023 119.77 89.4023H119.77Z" fill="#110E4C"/>
<path d="M132.167 102.867H84.9785C84.4482 102.867 83.9396 102.583 83.5646 102.078C83.1897 101.573 82.979 100.888 82.979 100.174C82.979 99.4595 83.1897 98.7746 83.5646 98.2696C83.9396 97.7645 84.4482 97.4808 84.9785 97.4808H132.167C132.697 97.4808 133.205 97.7645 133.58 98.2696C133.955 98.7746 134.166 99.4595 134.166 100.174C134.166 100.888 133.955 101.573 133.58 102.078C133.205 102.583 132.697 102.867 132.167 102.867Z" fill="#110E4C"/>
<path d="M132.167 116.331H84.9785C84.4482 116.331 83.9396 116.047 83.5646 115.542C83.1897 115.037 82.979 114.352 82.979 113.638C82.979 112.924 83.1897 112.239 83.5646 111.734C83.9396 111.229 84.4482 110.945 84.9785 110.945H132.167C132.697 110.945 133.205 111.229 133.58 111.734C133.955 112.239 134.166 112.924 134.166 113.638C134.166 114.352 133.955 115.037 133.58 115.542C133.205 116.047 132.697 116.331 132.167 116.331Z" fill="#110E4C"/>
<path d="M360.701 111.818C361.95 111.818 363.174 111.343 364.232 110.447C365.29 109.552 366.138 108.272 366.679 106.755C367.221 105.239 367.433 103.547 367.291 101.875C367.15 100.203 366.661 98.619 365.88 97.3051C362.613 91.807 355.462 92.6492 352.601 86.7552C350.176 81.7605 352.415 74.9016 355.644 70.8153C361.965 62.8157 372.084 60.85 379.827 66.1175C387.569 71.3851 392.398 83.5213 391.368 95.1205C390.975 99.5386 390.065 104.901 392.611 107.736C394.871 110.253 398.21 108.825 401.049 107.833C405.258 106.405 409.647 106.219 413.915 107.289C418.182 108.359 422.228 110.659 425.773 114.033C431.802 119.852 436.196 129.25 436.199 139.24C436.202 149.229 431.15 159.296 423.921 161.533C416.835 163.725 409.53 158.395 404.518 151.302C399.505 144.209 396.063 135.387 391.495 127.769C386.926 120.151 380.605 113.441 373.335 113.265C369.123 113.163 364.512 115.159 360.937 112.157" fill="#2F2E41"/>
<path d="M363.825 115.795C371.596 115.795 377.896 107.311 377.896 96.8458C377.896 86.3803 371.596 77.8962 363.825 77.8962C356.054 77.8962 349.755 86.3803 349.755 96.8458C349.755 107.311 356.054 115.795 363.825 115.795Z" fill="#FFB8B8"/>
<path d="M333.895 222.554C333.647 221.47 333.578 220.326 333.694 219.203C333.809 218.079 334.107 217.004 334.564 216.052C335.022 215.1 335.629 214.294 336.343 213.692C337.057 213.091 337.86 212.707 338.696 212.568L342.994 185.612L350.447 195.835L345.223 219.865C345.303 221.772 344.861 223.652 343.98 225.149C343.1 226.645 341.842 227.655 340.446 227.986C339.049 228.318 337.611 227.948 336.404 226.947C335.196 225.945 334.304 224.382 333.895 222.554Z" fill="#FFB8B8"/>
<path d="M406.167 339.635L399.264 341.378L378.455 249.328L393.226 246.753L406.167 339.635Z" fill="#FFB8B8"/>
<path d="M393.962 339.97L407.275 336.606L408.848 347.895L387.153 353.376C386.946 351.894 386.959 350.371 387.189 348.895C387.419 347.419 387.863 346.019 388.496 344.774C389.128 343.529 389.936 342.464 390.874 341.64C391.812 340.815 392.861 340.248 393.962 339.97Z" fill="#2F2E41"/>
<path d="M360.932 344.592L353.909 344.591L352.859 259.347L367.808 259.348L360.932 344.592Z" fill="#FFB8B8"/>
<path d="M348.892 341.888H362.437V353.374H340.364C340.364 351.866 340.584 350.372 341.013 348.979C341.442 347.585 342.07 346.319 342.862 345.253C343.654 344.186 344.594 343.34 345.628 342.763C346.663 342.186 347.772 341.888 348.892 341.888Z" fill="#2F2E41"/>
<path d="M349.627 270.948L350.272 229.288C350.223 228.702 345.149 165.585 343.258 149.457C341.337 133.069 351.265 124.666 351.365 124.583C351.81 124.338 352.212 124.13 352.613 123.931C357.309 121.538 362.412 120.983 367.332 122.329C372.253 123.676 376.79 126.869 380.42 131.541C384.179 136.212 386.896 142.201 388.266 148.837C389.637 155.473 389.607 162.492 388.179 169.105L384.677 185.434C402.618 229.118 406.3 247.917 406.335 248.101L406.346 248.158L406.344 248.217C405.7 265.541 352.216 270.708 349.94 270.919L349.627 270.948Z" fill="#110E4C"/>
<path d="M345.455 141.665L333.334 206.1L355.024 209.536L345.455 141.665Z" fill="#110E4C"/>
<path d="M374.755 194.925C374.904 193.808 375.232 192.749 375.717 191.822C376.202 190.895 376.832 190.122 377.563 189.559C378.294 188.995 379.108 188.654 379.947 188.56C380.786 188.465 381.631 188.62 382.421 189.013L395.413 167.707L398.56 181.393L385.739 199.527C385.161 201.271 384.129 202.669 382.837 203.455C381.545 204.242 380.083 204.364 378.73 203.796C377.376 203.229 376.223 202.013 375.491 200.378C374.758 198.742 374.497 196.802 374.755 194.925Z" fill="#FFB8B8"/>
<path d="M391.724 194.977L380.415 185.124L391.179 169.774L361.993 157.812L369.502 128.351L378.739 130.128L402.22 153.553C405.205 156.554 407.198 161.012 407.769 165.97C408.34 170.928 407.444 175.99 405.273 180.068L405.223 180.141L391.724 194.977Z" fill="#110E4C"/>
<path d="M351.156 86.0754C357.21 91.053 364.036 94.082 371.102 94.9267L369 91.5339C370.53 92.2962 372.141 92.727 373.772 92.8103C375.401 92.7761 377.108 91.9313 378.033 90.1246C378.445 89.2264 378.69 88.2073 378.747 87.1541C378.803 86.1008 378.67 85.0448 378.358 84.076C377.717 82.1436 376.72 80.4642 375.461 79.1976C373.23 76.8203 370.596 75.2234 367.795 74.5493C364.995 73.8752 362.113 74.1447 359.409 75.3339C357.553 76.0806 355.892 77.5161 354.614 79.4758C353.403 81.4891 350.76 83.2996 351.38 85.7528L351.156 86.0754Z" fill="#2F2E41"/>
<path d="M454.318 354H279.995C279.814 354 279.64 353.903 279.512 353.731C279.384 353.559 279.312 353.325 279.312 353.081C279.312 352.838 279.384 352.604 279.512 352.432C279.64 352.259 279.814 352.163 279.995 352.163H454.318C454.499 352.163 454.672 352.26 454.799 352.433C454.927 352.605 454.998 352.838 454.998 353.081C454.998 353.325 454.927 353.558 454.799 353.73C454.672 353.902 454.499 353.999 454.318 354Z" fill="#3F3D56"/>
</g>
<defs>
<clipPath id="clip0">
<rect width="455" height="354" fill="white"/>
</clipPath>
</defs>
</svg>
