<svg width="422" height="365" viewBox="0 0 422 365" fill="none" xmlns="http://www.w3.org/2000/svg">
<g clip-path="url(#clip0)">
<path d="M422 0H17.9839V292.531H422V0Z" fill="url(#paint0_linear)"/>
<path d="M417.455 34.5618H21.519V283.683H417.455V34.5618Z" fill="white"/>
<path d="M417.455 6.08289H21.519V34.5618H417.455V6.08289Z" fill="#110E4C"/>
<path d="M412.91 52.5339H27.0742V269.858H412.91V52.5339Z" fill="url(#paint1_linear)"/>
<path opacity="0.5" d="M78.3339 56.4048H31.8721V97.0495H78.3339V56.4048Z" fill="#110E4C"/>
<path d="M125.301 56.4048H78.8389V97.0495H125.301V56.4048Z" fill="white"/>
<path opacity="0.2" d="M172.268 56.4048H125.806V97.0495H172.268V56.4048Z" fill="#110E4C"/>
<path d="M219.234 56.4048H172.772V97.0495H219.234V56.4048Z" fill="white"/>
<path d="M266.201 56.4048H219.739V97.0495H266.201V56.4048Z" fill="white"/>
<path opacity="0.5" d="M313.168 56.4048H266.706V97.0495H313.168V56.4048Z" fill="#110E4C"/>
<path d="M360.135 56.4048H313.673V97.0495H360.135V56.4048Z" fill="white"/>
<path opacity="0.2" d="M407.102 56.4048H360.64V97.0495H407.102V56.4048Z" fill="#110E4C"/>
<path opacity="0.2" d="M78.3339 97.879H31.8721V138.524H78.3339V97.879Z" fill="#110E4C"/>
<path opacity="0.2" d="M125.301 97.879H78.8389V138.524H125.301V97.879Z" fill="#110E4C"/>
<path d="M172.268 97.879H125.806V138.524H172.268V97.879Z" fill="white"/>
<path opacity="0.5" d="M219.234 97.879H172.772V138.524H219.234V97.879Z" fill="#110E4C"/>
<path d="M266.201 97.879H219.739V138.524H266.201V97.879Z" fill="white"/>
<path opacity="0.2" d="M313.168 97.879H266.706V138.524H313.168V97.879Z" fill="#110E4C"/>
<path opacity="0.5" d="M360.135 97.879H313.673V138.524H360.135V97.879Z" fill="#110E4C"/>
<path d="M407.102 97.879H360.64V138.524H407.102V97.879Z" fill="white"/>
<path d="M78.3339 138.8H31.8721V179.445H78.3339V138.8Z" fill="white"/>
<path d="M125.301 138.8H78.8389V179.445H125.301V138.8Z" fill="white"/>
<path opacity="0.2" d="M172.268 138.8H125.806V179.445H172.268V138.8Z" fill="#110E4C"/>
<path d="M219.234 138.8H172.772V179.445H219.234V138.8Z" fill="white"/>
<path opacity="0.2" d="M266.201 138.8H219.739V179.445H266.201V138.8Z" fill="#110E4C"/>
<path d="M313.168 138.8H266.706V179.445H313.168V138.8Z" fill="white"/>
<path d="M360.135 138.8H313.673V179.445H360.135V138.8Z" fill="white"/>
<path opacity="0.2" d="M407.102 138.8H360.64V179.445H407.102V138.8Z" fill="#110E4C"/>
<path d="M78.3339 179.721H31.8721V220.366H78.3339V179.721Z" fill="white"/>
<path opacity="0.5" d="M125.301 179.721H78.8389V220.366H125.301V179.721Z" fill="#110E4C"/>
<path opacity="0.5" d="M172.268 179.721H125.806V220.366H172.268V179.721Z" fill="#110E4C"/>
<path d="M219.234 179.721H172.772V220.366H219.234V179.721Z" fill="white"/>
<path d="M266.201 179.721H219.739V220.366H266.201V179.721Z" fill="white"/>
<path opacity="0.5" d="M313.168 179.721H266.706V220.366H313.168V179.721Z" fill="#110E4C"/>
<path d="M360.135 179.721H313.673V220.366H360.135V179.721Z" fill="white"/>
<path opacity="0.5" d="M407.102 179.721H360.64V220.366H407.102V179.721Z" fill="#110E4C"/>
<path opacity="0.5" d="M78.3339 221.195H31.8721V261.84H78.3339V221.195Z" fill="#110E4C"/>
<path opacity="0.2" d="M125.301 221.195H78.8389V261.84H125.301V221.195Z" fill="#110E4C"/>
<path d="M172.268 221.195H125.806V261.84H172.268V221.195Z" fill="white"/>
<path opacity="0.5" d="M219.234 221.195H172.772V261.84H219.234V221.195Z" fill="#110E4C"/>
<path opacity="0.2" d="M266.201 221.195H219.739V261.84H266.201V221.195Z" fill="#110E4C"/>
<path d="M313.168 221.195H266.706V261.84H313.168V221.195Z" fill="white"/>
<path opacity="0.2" d="M360.135 221.195H313.673V261.84H360.135V221.195Z" fill="#110E4C"/>
<path d="M407.102 221.195H360.64V261.84H407.102V221.195Z" fill="white"/>
<path d="M49.8002 142.671H35.6597V158.155H49.8002V142.671Z" fill="#69F0AE"/>
<path d="M190.196 60.8287H176.055V76.3124H190.196V60.8287Z" fill="#69F0AE"/>
<path d="M188.681 142.671H174.54V158.155H188.681V142.671Z" fill="#69F0AE"/>
<path d="M236.658 181.933H222.517V197.417H236.658V181.933Z" fill="#69F0AE"/>
<path d="M330.086 142.671H315.946V158.155H330.086V142.671Z" fill="#69F0AE"/>
<path d="M86.6362 365C134.484 365 173.272 322.527 173.272 270.135C173.272 217.742 134.484 175.27 86.6362 175.27C38.7884 175.27 0 217.742 0 270.135C0 322.527 38.7884 365 86.6362 365Z" fill="url(#paint2_linear)"/>
<path d="M86.6364 362.44C133.193 362.44 170.934 321.113 170.934 270.135C170.934 219.156 133.193 177.83 86.6364 177.83C40.0799 177.83 2.33838 219.156 2.33838 270.135C2.33838 321.113 40.0799 362.44 86.6364 362.44Z" fill="#110E4C"/>
<path d="M86.6364 345.131C124.463 345.131 155.127 311.554 155.127 270.135C155.127 228.716 124.463 195.139 86.6364 195.139C48.8099 195.139 18.1455 228.716 18.1455 270.135C18.1455 311.554 48.8099 345.131 86.6364 345.131Z" fill="white"/>
<path d="M86.6362 274.62C88.8982 274.62 90.732 272.612 90.732 270.135C90.732 267.658 88.8982 265.65 86.6362 265.65C84.3742 265.65 82.5405 267.658 82.5405 270.135C82.5405 272.612 84.3742 274.62 86.6362 274.62Z" fill="url(#paint3_linear)"/>
<path d="M88.1814 270.688L85.6562 269.759L108.382 211.518L110.907 212.818L88.1814 270.688Z" fill="url(#paint4_linear)"/>
<path d="M108.652 212.053L86.4082 269.743L88.0273 270.491L110.271 212.802L108.652 212.053Z" fill="#2196F3"/>
<path d="M100.807 301.102L86.1616 271.241L88.1817 270.135L103.332 299.443L100.807 301.102Z" fill="url(#paint5_linear)"/>
<path d="M87.9861 270.335L86.4419 271.254L101.076 300.742L102.62 299.823L87.9861 270.335Z" fill="#2196F3"/>
<path d="M150.445 273.984C151.416 273.984 152.203 273.122 152.203 272.059C152.203 270.996 151.416 270.135 150.445 270.135C149.475 270.135 148.688 270.996 148.688 272.059C148.688 273.122 149.475 273.984 150.445 273.984Z" fill="#110E4C"/>
<path d="M33.6498 236.832C34.2801 235.637 33.906 234.108 32.8143 233.418C31.7225 232.727 30.3264 233.137 29.696 234.333C29.0657 235.528 29.4398 237.057 30.5316 237.747C31.6234 238.437 33.0194 238.028 33.6498 236.832Z" fill="url(#paint6_linear)"/>
<path d="M33.3982 308.895C34.49 308.205 34.8641 306.676 34.2337 305.481C33.6034 304.285 32.2073 303.875 31.1155 304.566C30.0237 305.256 29.6497 306.785 30.28 307.98C30.9104 309.176 32.3064 309.585 33.3982 308.895Z" fill="url(#paint7_linear)"/>
<path d="M22.832 274.559C24.0927 274.559 25.1147 273.44 25.1147 272.059C25.1147 270.679 24.0927 269.56 22.832 269.56C21.5713 269.56 20.5493 270.679 20.5493 272.059C20.5493 273.44 21.5713 274.559 22.832 274.559Z" fill="url(#paint8_linear)"/>
<path d="M56.1092 212.108C57.201 211.418 57.575 209.889 56.9447 208.694C56.3144 207.498 54.9183 207.088 53.8265 207.779C52.7347 208.469 52.3606 209.998 52.991 211.193C53.6213 212.389 55.0174 212.798 56.1092 212.108Z" fill="url(#paint9_linear)"/>
<path d="M87.721 203.137C88.8128 202.447 89.1869 200.919 88.5565 199.723C87.9262 198.528 86.5301 198.118 85.4383 198.808C84.3465 199.498 83.9724 201.027 84.6028 202.223C85.2331 203.418 86.6292 203.828 87.721 203.137Z" fill="url(#paint10_linear)"/>
<path d="M119.332 212.111C120.424 211.42 120.798 209.892 120.167 208.696C119.537 207.501 118.141 207.091 117.049 207.781C115.957 208.472 115.583 210 116.214 211.196C116.844 212.391 118.24 212.801 119.332 212.111Z" fill="url(#paint11_linear)"/>
<path d="M142.746 237.751C143.838 237.061 144.212 235.533 143.582 234.337C142.952 233.142 141.555 232.732 140.464 233.422C139.372 234.112 138.998 235.641 139.628 236.837C140.259 238.032 141.655 238.442 142.746 237.751Z" fill="url(#paint12_linear)"/>
<path d="M142.163 308.9C143.255 308.21 143.629 306.682 142.999 305.486C142.369 304.291 140.972 303.881 139.881 304.571C138.789 305.261 138.415 306.79 139.045 307.986C139.675 309.181 141.072 309.591 142.163 308.9Z" fill="url(#paint13_linear)"/>
<path d="M118.16 333.897C119.252 333.207 119.626 331.678 118.996 330.483C118.366 329.287 116.97 328.878 115.878 329.568C114.786 330.258 114.412 331.787 115.042 332.982C115.673 334.178 117.069 334.588 118.16 333.897Z" fill="url(#paint14_linear)"/>
<path d="M87.7181 341.593C88.8098 340.903 89.1839 339.374 88.5536 338.179C87.9232 336.983 86.5272 336.573 85.4354 337.264C84.3436 337.954 83.9695 339.483 84.5998 340.678C85.2302 341.874 86.6263 342.283 87.7181 341.593Z" fill="url(#paint15_linear)"/>
<path d="M57.2806 333.9C58.3724 333.21 58.7464 331.681 58.1161 330.486C57.4857 329.29 56.0897 328.881 54.9979 329.571C53.9061 330.261 53.532 331.79 54.1623 332.985C54.7927 334.181 56.1888 334.59 57.2806 333.9Z" fill="url(#paint16_linear)"/>
<path d="M86.6364 202.831C87.607 202.831 88.3938 201.969 88.3938 200.906C88.3938 199.843 87.607 198.982 86.6364 198.982C85.6658 198.982 84.8789 199.843 84.8789 200.906C84.8789 201.969 85.6658 202.831 86.6364 202.831Z" fill="#69F0AE"/>
<path d="M119.77 211.141C120.255 210.221 119.967 209.044 119.127 208.513C118.286 207.981 117.211 208.297 116.726 209.217C116.241 210.138 116.529 211.314 117.369 211.846C118.21 212.377 119.285 212.062 119.77 211.141Z" fill="#69F0AE"/>
<path d="M142.265 237.188C143.106 236.656 143.394 235.479 142.909 234.559C142.423 233.638 141.348 233.323 140.508 233.854C139.667 234.386 139.379 235.563 139.865 236.483C140.35 237.404 141.425 237.719 142.265 237.188Z" fill="#69F0AE"/>
<path d="M142.543 307.694C143.028 306.773 142.74 305.596 141.9 305.065C141.059 304.534 139.984 304.849 139.499 305.769C139.014 306.69 139.302 307.867 140.142 308.398C140.983 308.93 142.058 308.614 142.543 307.694Z" fill="#69F0AE"/>
<path d="M117.898 333.268C118.738 332.736 119.026 331.559 118.541 330.639C118.056 329.718 116.981 329.403 116.14 329.935C115.3 330.466 115.012 331.643 115.497 332.563C115.982 333.484 117.057 333.799 117.898 333.268Z" fill="#69F0AE"/>
<path d="M55.9025 211.852C56.7431 211.32 57.0311 210.143 56.5458 209.223C56.0605 208.303 54.9856 207.987 54.1451 208.519C53.3045 209.05 53.0165 210.227 53.5018 211.147C53.9871 212.068 55.0619 212.383 55.9025 211.852Z" fill="#69F0AE"/>
<path d="M33.4096 236.484C33.8949 235.564 33.6069 234.387 32.7663 233.856C31.9257 233.324 30.8509 233.64 30.3656 234.56C29.8802 235.48 30.1682 236.657 31.0088 237.189C31.8494 237.72 32.9242 237.405 33.4096 236.484Z" fill="#69F0AE"/>
<path d="M151.531 274.289C152.623 273.599 152.997 272.07 152.367 270.875C151.736 269.679 150.34 269.27 149.248 269.96C148.157 270.65 147.782 272.179 148.413 273.374C149.043 274.57 150.439 274.98 151.531 274.289Z" fill="#69F0AE"/>
<path d="M33.1359 308.397C33.9765 307.866 34.2645 306.689 33.7792 305.768C33.2939 304.848 32.2191 304.532 31.3785 305.064C30.5379 305.595 30.2499 306.772 30.7352 307.693C31.2205 308.613 32.2954 308.928 33.1359 308.397Z" fill="#69F0AE"/>
<path d="M57.7753 332.566C58.2606 331.645 57.9726 330.468 57.132 329.937C56.2914 329.406 55.2166 329.721 54.7313 330.641C54.246 331.562 54.534 332.739 55.3745 333.27C56.2151 333.801 57.29 333.486 57.7753 332.566Z" fill="#69F0AE"/>
<path d="M22.8322 273.984C23.8028 273.984 24.5896 273.122 24.5896 272.059C24.5896 270.996 23.8028 270.135 22.8322 270.135C21.8616 270.135 21.0747 270.996 21.0747 272.059C21.0747 273.122 21.8616 273.984 22.8322 273.984Z" fill="#69F0AE"/>
<path d="M86.6364 341.282C87.607 341.282 88.3938 340.421 88.3938 339.358C88.3938 338.295 87.607 337.434 86.6364 337.434C85.6658 337.434 84.8789 338.295 84.8789 339.358C84.8789 340.421 85.6658 341.282 86.6364 341.282Z" fill="#69F0AE"/>
<path opacity="0.2" d="M21.6601 277.185C21.6646 260.659 26.6534 244.597 35.8515 231.495C45.0496 218.393 57.942 208.983 72.5259 204.729C87.1097 200.474 102.569 201.613 116.501 207.967C130.433 214.322 142.059 225.537 149.572 239.87C145.885 230.493 140.489 222.038 133.714 215.025C126.939 208.011 118.928 202.585 110.171 199.08C101.414 195.575 92.0959 194.065 82.7872 194.641C73.4786 195.217 64.3753 197.868 56.0349 202.431C47.6946 206.994 40.2928 213.374 34.2829 221.179C28.2729 228.984 23.7814 238.051 21.0833 247.823C18.3852 257.595 17.5374 267.868 18.5918 278.011C19.6462 288.155 22.5806 297.956 27.2153 306.814C23.5388 297.456 21.6483 287.373 21.6601 277.185Z" fill="#110E4C"/>
<path d="M86.6362 273.342C88.2539 273.342 89.5653 271.906 89.5653 270.135C89.5653 268.363 88.2539 266.927 86.6362 266.927C85.0184 266.927 83.707 268.363 83.707 270.135C83.707 271.906 85.0184 273.342 86.6362 273.342Z" fill="#69F0AE"/>
</g>
<defs>
<linearGradient id="paint0_linear" x1="219.992" y1="292.531" x2="219.992" y2="0" gradientUnits="userSpaceOnUse">
<stop stop-color="#808080" stop-opacity="0.25"/>
<stop offset="0.54" stop-color="#808080" stop-opacity="0.12"/>
<stop offset="1" stop-color="#808080" stop-opacity="0.1"/>
</linearGradient>
<linearGradient id="paint1_linear" x1="168101" y1="106107" x2="168101" y2="20698.4" gradientUnits="userSpaceOnUse">
<stop stop-color="#808080" stop-opacity="0.25"/>
<stop offset="0.54" stop-color="#808080" stop-opacity="0.12"/>
<stop offset="1" stop-color="#808080" stop-opacity="0.1"/>
</linearGradient>
<linearGradient id="paint2_linear" x1="29724.9" y1="125407" x2="29724.9" y2="60310.3" gradientUnits="userSpaceOnUse">
<stop stop-color="#808080" stop-opacity="0.25"/>
<stop offset="0.54" stop-color="#808080" stop-opacity="0.12"/>
<stop offset="1" stop-color="#808080" stop-opacity="0.1"/>
</linearGradient>
<linearGradient id="paint3_linear" x1="1487.78" y1="4719.95" x2="1487.78" y2="4574.38" gradientUnits="userSpaceOnUse">
<stop stop-color="#808080" stop-opacity="0.25"/>
<stop offset="0.54" stop-color="#808080" stop-opacity="0.12"/>
<stop offset="1" stop-color="#808080" stop-opacity="0.1"/>
</linearGradient>
<linearGradient id="paint4_linear" x1="4999.76" y1="29175.1" x2="4999.76" y2="22844" gradientUnits="userSpaceOnUse">
<stop stop-color="#808080" stop-opacity="0.25"/>
<stop offset="0.54" stop-color="#808080" stop-opacity="0.12"/>
<stop offset="1" stop-color="#808080" stop-opacity="0.1"/>
</linearGradient>
<linearGradient id="paint5_linear" x1="3307.56" y1="17131.9" x2="3307.56" y2="15397.7" gradientUnits="userSpaceOnUse">
<stop stop-color="#808080" stop-opacity="0.25"/>
<stop offset="0.54" stop-color="#808080" stop-opacity="0.12"/>
<stop offset="1" stop-color="#808080" stop-opacity="0.1"/>
</linearGradient>
<linearGradient id="paint6_linear" x1="-1850.79" y1="4195.04" x2="-1813.55" y2="4175.4" gradientUnits="userSpaceOnUse">
<stop stop-color="#808080" stop-opacity="0.25"/>
<stop offset="0.54" stop-color="#808080" stop-opacity="0.12"/>
<stop offset="1" stop-color="#808080" stop-opacity="0.1"/>
</linearGradient>
<linearGradient id="paint7_linear" x1="1153.37" y1="3699.38" x2="1153.37" y2="3654.24" gradientUnits="userSpaceOnUse">
<stop stop-color="#808080" stop-opacity="0.25"/>
<stop offset="0.54" stop-color="#808080" stop-opacity="0.12"/>
<stop offset="1" stop-color="#808080" stop-opacity="0.1"/>
</linearGradient>
<linearGradient id="paint8_linear" x1="-357.279" y1="4278.61" x2="-333.71" y2="4241.32" gradientUnits="userSpaceOnUse">
<stop stop-color="#808080" stop-opacity="0.25"/>
<stop offset="0.54" stop-color="#808080" stop-opacity="0.12"/>
<stop offset="1" stop-color="#808080" stop-opacity="0.1"/>
</linearGradient>
<linearGradient id="paint9_linear" x1="-3118.71" y1="3229.99" x2="-3077.44" y2="3229.99" gradientUnits="userSpaceOnUse">
<stop stop-color="#808080" stop-opacity="0.25"/>
<stop offset="0.54" stop-color="#808080" stop-opacity="0.12"/>
<stop offset="1" stop-color="#808080" stop-opacity="0.1"/>
</linearGradient>
<linearGradient id="paint10_linear" x1="-2824.77" y1="3183.52" x2="-2783.5" y2="3183.52" gradientUnits="userSpaceOnUse">
<stop stop-color="#808080" stop-opacity="0.25"/>
<stop offset="0.54" stop-color="#808080" stop-opacity="0.12"/>
<stop offset="1" stop-color="#808080" stop-opacity="0.1"/>
</linearGradient>
<linearGradient id="paint11_linear" x1="-2547.17" y1="3299.23" x2="-2505.95" y2="3299.23" gradientUnits="userSpaceOnUse">
<stop stop-color="#808080" stop-opacity="0.25"/>
<stop offset="0.54" stop-color="#808080" stop-opacity="0.12"/>
<stop offset="1" stop-color="#808080" stop-opacity="0.1"/>
</linearGradient>
<linearGradient id="paint12_linear" x1="-2358.91" y1="3556.66" x2="-2317.64" y2="3556.66" gradientUnits="userSpaceOnUse">
<stop stop-color="#808080" stop-opacity="0.25"/>
<stop offset="0.54" stop-color="#808080" stop-opacity="0.12"/>
<stop offset="1" stop-color="#808080" stop-opacity="0.1"/>
</linearGradient>
<linearGradient id="paint13_linear" x1="-2429.2" y1="4199.16" x2="-2387.93" y2="4199.16" gradientUnits="userSpaceOnUse">
<stop stop-color="#808080" stop-opacity="0.25"/>
<stop offset="0.54" stop-color="#808080" stop-opacity="0.12"/>
<stop offset="1" stop-color="#808080" stop-opacity="0.1"/>
</linearGradient>
<linearGradient id="paint14_linear" x1="-2668.97" y1="4398.93" x2="-2627.75" y2="4398.93" gradientUnits="userSpaceOnUse">
<stop stop-color="#808080" stop-opacity="0.25"/>
<stop offset="0.54" stop-color="#808080" stop-opacity="0.12"/>
<stop offset="1" stop-color="#808080" stop-opacity="0.1"/>
</linearGradient>
<linearGradient id="paint15_linear" x1="-2951.21" y1="4435.11" x2="-2909.94" y2="4435.11" gradientUnits="userSpaceOnUse">
<stop stop-color="#808080" stop-opacity="0.25"/>
<stop offset="0.54" stop-color="#808080" stop-opacity="0.12"/>
<stop offset="1" stop-color="#808080" stop-opacity="0.1"/>
</linearGradient>
<linearGradient id="paint16_linear" x1="-3219.34" y1="4332.27" x2="-3178.12" y2="4332.27" gradientUnits="userSpaceOnUse">
<stop stop-color="#808080" stop-opacity="0.25"/>
<stop offset="0.54" stop-color="#808080" stop-opacity="0.12"/>
<stop offset="1" stop-color="#808080" stop-opacity="0.1"/>
</linearGradient>
<clipPath id="clip0">
<rect width="422" height="365" fill="white"/>
</clipPath>
</defs>
</svg>
