<svg width="521" height="362" viewBox="0 0 521 362" fill="none" xmlns="http://www.w3.org/2000/svg">
<g clip-path="url(#clip0)">
<path opacity="0.1" d="M489.837 196.502C471.52 219.54 477.565 252.423 488.152 278.621C491.699 287.39 495.727 296.666 493.888 306.208C491.642 317.872 481.088 326.612 470.117 331.372C450.116 340.048 426.49 338.662 408.6 327.731C393.161 318.297 382.292 302.619 366.554 293.634C340.214 278.604 306.019 285.319 276.704 296.795C255.964 304.913 233.246 315.368 213.034 307.872C198.812 302.597 189.235 289.17 184.196 274.817C181.764 267.887 180.061 260.365 175.214 254.94C172.332 251.715 168.523 249.468 164.608 247.59C128.869 230.436 82.8979 241.157 48.2491 222.018C24.8567 209.093 10.2973 184.01 4.24805 157.641C-1.80123 131.272 -0.304112 103.436 2.1053 76.0759C3.81763 56.6323 6.52647 35.8551 19.28 20.5756C32.7681 4.42121 55.3745 -1.99851 75.5902 0.531639C95.8059 3.06179 113.93 13.3539 129.786 25.6402C149.618 40.9669 167.864 60.2088 192.529 66.0282C209.329 69.9907 227.178 67.1861 244.642 65.9467C273.836 63.8797 302.927 66.2598 331.84 68.9486C359.518 71.5216 387.387 74.3948 413.601 82.8301C432.151 88.7995 446.855 100.082 464.32 107.793C475.703 112.819 488.227 113.985 498.941 120.478C512.162 128.476 524.111 142.645 520.233 159.648C516.569 175.811 499.568 184.276 489.837 196.502Z" fill="#110E4C"/>
<g opacity="0.5">
<path opacity="0.5" d="M400.005 301.577C400.005 301.577 401.549 259.653 426.294 235.964C436.68 226.024 443.501 213.399 445.307 199.736C446.151 193.252 446.345 186.71 445.887 180.194" stroke="#535461" stroke-width="2" stroke-miterlimit="10"/>
<path opacity="0.5" d="M461.387 165.189C459.693 169.872 445.536 180.627 445.536 180.627C445.536 180.627 441.199 164.241 442.893 159.562C443.296 158.449 443.934 157.42 444.77 156.533C445.607 155.646 446.626 154.918 447.77 154.392C448.913 153.866 450.159 153.552 451.435 153.467C452.711 153.382 453.992 153.528 455.207 153.897C456.421 154.267 457.544 154.851 458.512 155.618C459.48 156.385 460.273 157.32 460.847 158.368C461.421 159.416 461.764 160.557 461.857 161.727C461.949 162.896 461.79 164.071 461.387 165.184V165.189Z" fill="#110E4C"/>
<path opacity="0.5" d="M467.286 195.765C463.076 198.853 444.83 200.834 444.83 200.834C444.83 200.834 450.912 184.92 455.122 181.836C456.113 181.046 457.267 180.448 458.516 180.077C459.765 179.706 461.083 179.571 462.391 179.678C463.698 179.786 464.969 180.135 466.125 180.705C467.282 181.274 468.301 182.052 469.122 182.991C469.942 183.931 470.547 185.013 470.9 186.172C471.253 187.331 471.346 188.544 471.175 189.737C471.003 190.93 470.57 192.079 469.902 193.115C469.234 194.151 468.344 195.052 467.286 195.765Z" fill="#110E4C"/>
<path opacity="0.5" d="M450.594 239.867C445.27 240.587 428.413 233.863 428.413 233.863C428.413 233.863 442.42 222.936 447.745 222.216C449.01 222.044 450.3 222.103 451.541 222.388C452.782 222.674 453.949 223.181 454.977 223.88C456.004 224.579 456.871 225.457 457.528 226.463C458.185 227.469 458.62 228.584 458.807 229.744C458.994 230.904 458.93 232.087 458.618 233.224C458.307 234.361 457.754 235.432 456.991 236.373C456.229 237.315 455.271 238.109 454.174 238.712C453.076 239.314 451.859 239.712 450.594 239.884V239.867Z" fill="#110E4C"/>
<path opacity="0.5" d="M429.76 270.632C424.647 272.167 406.789 268.136 406.789 268.136C406.789 268.136 418.584 255.198 423.697 253.662C426.152 252.923 428.827 253.108 431.133 254.176C433.439 255.245 435.188 257.109 435.994 259.36C436.801 261.61 436.599 264.062 435.434 266.175C434.268 268.289 432.234 269.892 429.779 270.632H429.76Z" fill="#110E4C"/>
<path opacity="0.5" d="M425.082 195.838C427.566 200.212 443.426 208.776 443.426 208.776C443.426 208.776 444.867 191.97 442.383 187.591C441.793 186.551 440.984 185.628 440.005 184.874C439.025 184.12 437.893 183.55 436.673 183.198C435.453 182.845 434.169 182.716 432.895 182.818C431.621 182.92 430.381 183.251 429.246 183.792C428.111 184.333 427.104 185.074 426.281 185.972C425.459 186.87 424.837 187.908 424.452 189.026C424.068 190.144 423.927 191.321 424.038 192.489C424.149 193.657 424.51 194.793 425.101 195.834L425.082 195.838Z" fill="#110E4C"/>
<path opacity="0.5" d="M401.217 232.096C405.016 235.591 422.925 239.416 422.925 239.416C422.925 239.416 418.813 222.983 415.019 219.488C413.195 217.811 410.72 216.866 408.136 216.861C405.553 216.857 403.073 217.793 401.243 219.465C399.413 221.136 398.382 223.405 398.377 225.773C398.372 228.141 399.394 230.414 401.217 232.092V232.096Z" fill="#110E4C"/>
<path opacity="0.5" d="M383.299 270.258C386.396 274.29 403.346 280.838 403.346 280.838C403.346 280.838 402.326 264.006 399.224 259.971C398.507 258.97 397.577 258.112 396.49 257.448C395.403 256.784 394.182 256.326 392.899 256.104C391.615 255.881 390.296 255.897 389.019 256.151C387.743 256.405 386.535 256.891 385.468 257.582C384.401 258.272 383.496 259.152 382.808 260.17C382.119 261.187 381.661 262.321 381.46 263.504C381.26 264.687 381.321 265.895 381.64 267.057C381.959 268.218 382.529 269.308 383.317 270.263L383.299 270.258Z" fill="#110E4C"/>
<path opacity="0.5" d="M405.441 284.226C405.441 284.226 391.406 265.511 393.867 247.903C394.951 240.524 393.395 233.021 389.432 226.521C387.523 223.449 385.312 220.544 382.826 217.842" stroke="#535461" stroke-width="2" stroke-miterlimit="10"/>
<path opacity="0.5" d="M384.309 206.735C385.212 209.273 382.826 218.133 382.826 218.133C382.826 218.133 375.186 212.275 374.283 209.741C373.849 208.522 373.96 207.195 374.594 206.052C375.227 204.909 376.329 204.043 377.659 203.645C378.988 203.247 380.436 203.349 381.683 203.929C382.93 204.51 383.875 205.52 384.309 206.739V206.735Z" fill="#110E4C"/>
<path opacity="0.5" d="M397.61 218.309C396.866 220.882 389.605 227.139 389.605 227.139C389.605 227.139 386.667 218.416 387.411 215.835C387.769 214.595 388.649 213.536 389.859 212.892C391.068 212.247 392.508 212.069 393.86 212.397C395.213 212.726 396.367 213.533 397.071 214.641C397.774 215.75 397.968 217.069 397.61 218.309Z" fill="#110E4C"/>
<path opacity="0.5" d="M405.816 242.435C403.753 244.318 394.045 246.355 394.045 246.355C394.045 246.355 396.309 237.465 398.377 235.583C398.869 235.135 399.452 234.78 400.093 234.539C400.734 234.298 401.42 234.175 402.113 234.177C402.806 234.179 403.492 234.306 404.131 234.551C404.77 234.796 405.351 235.153 405.839 235.604C406.328 236.055 406.715 236.589 406.978 237.176C407.241 237.764 407.375 238.393 407.373 239.028C407.371 239.664 407.232 240.292 406.965 240.878C406.698 241.464 406.307 241.996 405.816 242.444V242.435Z" fill="#110E4C"/>
<path opacity="0.5" d="M407.542 261.978C405.854 264.152 396.642 267.655 396.642 267.655C396.642 267.655 397.236 258.543 398.925 256.368C399.326 255.851 399.834 255.411 400.421 255.073C401.008 254.736 401.661 254.508 402.344 254.402C403.027 254.296 403.726 254.314 404.401 254.456C405.077 254.598 405.715 254.86 406.279 255.228C406.844 255.595 407.324 256.061 407.692 256.599C408.06 257.137 408.309 257.736 408.425 258.362C408.54 258.988 408.52 259.629 408.366 260.248C408.211 260.867 407.925 261.451 407.524 261.969L407.542 261.978Z" fill="#110E4C"/>
<path opacity="0.5" d="M379.256 230.775C381.872 231.95 391.776 231.007 391.776 231.007C391.776 231.007 386.503 223.262 383.888 222.091C382.632 221.528 381.183 221.446 379.86 221.862C378.537 222.278 377.449 223.159 376.835 224.311C376.221 225.462 376.131 226.79 376.585 228.003C377.039 229.215 378 230.212 379.256 230.775Z" fill="#110E4C"/>
<path opacity="0.5" d="M381.591 253.611C384.472 254.014 393.614 250.399 393.614 250.399C393.614 250.399 386.054 244.455 383.177 244.069C381.794 243.877 380.384 244.195 379.257 244.955C378.131 245.715 377.38 246.854 377.169 248.122C376.959 249.389 377.307 250.682 378.136 251.714C378.965 252.747 380.208 253.435 381.591 253.628V253.611Z" fill="#110E4C"/>
<path opacity="0.5" d="M387.177 275.512C389.942 276.37 399.622 274.225 399.622 274.225C399.622 274.225 393.268 267.197 390.503 266.352C389.176 265.947 387.727 266.043 386.476 266.618C385.226 267.192 384.275 268.199 383.834 269.416C383.393 270.633 383.497 271.961 384.124 273.107C384.751 274.253 385.849 275.125 387.177 275.529V275.512Z" fill="#110E4C"/>
<path opacity="0.5" d="M384.309 206.735C385.212 209.273 382.826 218.133 382.826 218.133C382.826 218.133 375.186 212.275 374.283 209.741C373.849 208.522 373.96 207.195 374.594 206.052C375.227 204.909 376.329 204.043 377.659 203.645C378.988 203.247 380.436 203.349 381.683 203.929C382.93 204.51 383.875 205.52 384.309 206.739V206.735Z" fill="white"/>
<path opacity="0.5" d="M397.61 218.309C396.866 220.882 389.605 227.139 389.605 227.139C389.605 227.139 386.667 218.416 387.411 215.835C387.769 214.595 388.649 213.536 389.859 212.892C391.068 212.247 392.508 212.069 393.86 212.397C395.213 212.726 396.367 213.533 397.071 214.641C397.774 215.75 397.968 217.069 397.61 218.309Z" fill="white"/>
<path opacity="0.5" d="M405.816 242.435C403.753 244.318 394.045 246.355 394.045 246.355C394.045 246.355 396.309 237.465 398.377 235.583C398.869 235.135 399.452 234.78 400.093 234.539C400.734 234.298 401.42 234.175 402.113 234.177C402.806 234.179 403.492 234.306 404.131 234.551C404.77 234.796 405.351 235.153 405.839 235.604C406.328 236.055 406.715 236.589 406.978 237.176C407.241 237.764 407.375 238.393 407.373 239.028C407.371 239.664 407.232 240.292 406.965 240.878C406.698 241.464 406.307 241.996 405.816 242.444V242.435Z" fill="white"/>
<path opacity="0.5" d="M407.542 261.978C405.854 264.152 396.642 267.655 396.642 267.655C396.642 267.655 397.236 258.543 398.925 256.368C399.326 255.851 399.834 255.411 400.421 255.073C401.008 254.736 401.661 254.508 402.344 254.402C403.027 254.296 403.726 254.314 404.401 254.456C405.077 254.598 405.715 254.86 406.279 255.228C406.844 255.595 407.324 256.061 407.692 256.599C408.06 257.137 408.309 257.736 408.425 258.362C408.54 258.988 408.52 259.629 408.366 260.248C408.211 260.867 407.925 261.451 407.524 261.969L407.542 261.978Z" fill="white"/>
<path opacity="0.5" d="M379.256 230.775C381.872 231.95 391.776 231.007 391.776 231.007C391.776 231.007 386.503 223.262 383.888 222.091C382.632 221.528 381.183 221.446 379.86 221.862C378.537 222.278 377.449 223.159 376.835 224.311C376.221 225.462 376.131 226.79 376.585 228.003C377.039 229.215 378 230.212 379.256 230.775Z" fill="white"/>
<path opacity="0.5" d="M381.591 253.611C384.472 254.014 393.614 250.399 393.614 250.399C393.614 250.399 386.054 244.455 383.177 244.069C381.794 243.877 380.384 244.195 379.257 244.955C378.131 245.715 377.38 246.854 377.169 248.122C376.959 249.389 377.307 250.682 378.136 251.714C378.965 252.747 380.208 253.435 381.591 253.628V253.611Z" fill="white"/>
<path opacity="0.5" d="M387.177 275.512C389.942 276.37 399.622 274.225 399.622 274.225C399.622 274.225 393.268 267.197 390.503 266.352C389.176 265.947 387.727 266.043 386.476 266.618C385.226 267.192 384.275 268.199 383.834 269.416C383.393 270.633 383.497 271.961 384.124 273.107C384.751 274.253 385.849 275.125 387.177 275.529V275.512Z" fill="white"/>
<path opacity="0.5" d="M379.471 334.97H419.393L429.377 279.165H369.492L379.471 334.97Z" fill="#474059"/>
<path opacity="0.1" d="M377.132 279.165L386.456 331.312H420.048L419.393 334.97H379.471L369.492 279.165H377.132Z" fill="black"/>
</g>
<path d="M387.041 16.8491H94.1685V340.751H387.041V16.8491Z" fill="url(#paint0_linear)"/>
<path d="M383.298 20.9916H97.9111V336.617H383.298V20.9916Z" fill="white"/>
<path d="M323.882 56.5853H208.791V61.7313H323.882V56.5853Z" fill="#C0BCCF"/>
<path d="M323.882 72.8811H208.791V78.0272H323.882V72.8811Z" fill="#C0BCCF"/>
<path d="M296.279 89.177H236.394V94.3231H296.279V89.177Z" fill="#110E4C"/>
<path opacity="0.5" d="M323.882 159.935H208.791V165.082H323.882V159.935Z" fill="#C0BCCF"/>
<path opacity="0.5" d="M323.882 176.231H208.791V181.377H323.882V176.231Z" fill="#C0BCCF"/>
<path opacity="0.5" d="M296.279 192.527H236.394V197.673H296.279V192.527Z" fill="#110E4C"/>
<path opacity="0.5" d="M323.882 263.286H208.791V268.432H323.882V263.286Z" fill="#C0BCCF"/>
<path opacity="0.5" d="M323.882 279.581H208.791V284.728H323.882V279.581Z" fill="#C0BCCF"/>
<path opacity="0.5" d="M296.279 295.877H236.394V301.023H296.279V295.877Z" fill="#110E4C"/>
<g opacity="0.5">
<path opacity="0.5" d="M168.271 188.638L165.857 187.643C165.894 187.306 165.909 186.969 165.904 186.631C165.92 186.345 165.92 186.059 165.904 185.773C165.665 183.517 164.098 181.553 162.989 179.49C161.974 177.608 161.329 175.575 161.085 173.487C160.79 170.914 161.085 168.246 160.056 165.828C159.218 163.876 157.562 162.247 155.789 160.806C153.798 159.094 151.473 157.742 148.935 156.822C146.343 155.964 143.363 155.746 140.771 156.621C138.432 157.41 136.63 158.983 134.89 160.514C133.626 161.535 132.51 162.699 131.568 163.979C130.506 165.575 130.052 167.41 129.697 169.22C129.138 172.117 128.754 175.041 128.546 177.977C128.364 180.425 128.078 183.204 125.795 184.705C124.682 185.438 123.114 185.85 122.604 186.961C122.46 187.294 122.402 187.654 122.436 188.012C122.422 188.309 122.445 188.607 122.506 188.899C122.539 189.071 122.576 189.238 122.623 189.41C121.968 190.902 121.418 192.432 120.976 193.99C120.635 195.147 120.321 196.284 120.041 197.386H120.798H121.201L125.561 197.48H125.622L130.3 197.579H130.324L134.684 197.673H134.792L136.05 197.755H136.462L153.899 198.124H153.992L155.153 198.149H155.56L159.05 198.222L164.196 198.329H164.233L168.107 198.415H168.519H169.314L169.108 194.693C169.96 188.994 168.271 188.638 168.271 188.638ZM148.682 188.183C148.682 191.339 144.996 195.203 144.996 195.203L141.285 190.572L141.421 190.392L144.996 194.851C144.996 194.851 148.682 190.992 148.682 187.831C148.768 187.671 148.867 187.516 148.977 187.368L149.061 187.608C148.92 187.791 148.793 187.983 148.682 188.183ZM154.352 200.568C154.352 200.409 154.352 200.246 154.32 200.088C154.287 199.929 154.292 199.787 154.268 199.633C154.245 199.479 154.226 199.329 154.203 199.174C154.179 199.02 154.147 198.87 154.114 198.715C154.081 198.561 154.048 198.411 154.011 198.256C154.011 198.205 153.988 198.158 153.974 198.102C153.922 197.901 153.866 197.699 153.805 197.497C153.744 197.296 153.707 197.172 153.651 197.013C153.651 196.94 153.604 196.867 153.576 196.798C153.548 196.73 153.496 196.567 153.454 196.451L153.37 196.228C153.333 196.129 153.295 196.027 153.253 195.928C153.183 195.748 153.108 195.572 153.033 195.392C152.958 195.212 152.879 195.036 152.799 194.86C152.64 194.5 152.467 194.144 152.294 193.784C151.616 192.394 150.853 191.026 150.151 189.671C149.775 188.962 149.441 188.235 149.15 187.493L149.061 187.6C148.919 187.784 148.793 187.977 148.682 188.179C148.682 191.335 144.996 195.199 144.996 195.199L141.285 190.567L138.039 194.856C137.571 195.07 137.103 195.799 136.738 196.837C136.635 197.116 136.537 197.425 136.443 197.746C136.378 197.965 136.317 198.175 136.261 198.419C136.228 198.535 136.2 198.651 136.172 198.771L136.088 199.136V199.191C136.032 199.44 135.975 199.697 135.924 199.959C135.873 200.221 135.812 200.521 135.76 200.817C135.723 201.002 135.69 201.187 135.662 201.37C135.596 201.726 135.54 202.086 135.484 202.446C135.451 202.656 135.419 202.875 135.391 203.068L135.278 203.866C135.517 204.522 135.784 205.152 136.06 205.813C136.235 206.159 136.338 206.533 136.364 206.915C142.119 208.321 148.176 208.321 153.931 206.915C153.93 206.902 153.93 206.889 153.931 206.876C153.845 206.517 153.807 206.15 153.819 205.783C153.914 204.752 154.07 203.727 154.287 202.712C154.356 202.212 154.386 201.707 154.376 201.203V201.022C154.362 200.86 154.357 200.714 154.352 200.572V200.568ZM154.352 200.568C154.352 200.409 154.352 200.246 154.32 200.088C154.287 199.929 154.292 199.787 154.268 199.633C154.245 199.479 154.226 199.329 154.203 199.174C154.179 199.02 154.147 198.87 154.114 198.715C154.081 198.561 154.048 198.411 154.011 198.256C154.011 198.205 153.988 198.158 153.974 198.102C153.922 197.901 153.866 197.699 153.805 197.497C153.744 197.296 153.707 197.172 153.651 197.013C153.651 196.94 153.604 196.867 153.576 196.798C153.548 196.73 153.496 196.567 153.454 196.451L153.37 196.228C153.333 196.129 153.295 196.027 153.253 195.928C153.183 195.748 153.108 195.572 153.033 195.392C152.958 195.212 152.879 195.036 152.799 194.86C152.64 194.5 152.467 194.144 152.294 193.784C151.616 192.394 150.853 191.026 150.151 189.671C149.775 188.962 149.441 188.235 149.15 187.493L149.061 187.6C148.919 187.784 148.793 187.977 148.682 188.179C148.682 191.335 144.996 195.199 144.996 195.199L141.285 190.567L138.039 194.856C137.571 195.07 137.103 195.799 136.738 196.837C136.635 197.116 136.537 197.425 136.443 197.746C136.378 197.965 136.317 198.175 136.261 198.419C136.228 198.535 136.2 198.651 136.172 198.771L136.088 199.136V199.191C136.032 199.44 135.975 199.697 135.924 199.959C135.873 200.221 135.812 200.521 135.76 200.817C135.723 201.002 135.69 201.187 135.662 201.37C135.596 201.726 135.54 202.086 135.484 202.446C135.451 202.656 135.419 202.875 135.391 203.068L135.278 203.866C135.517 204.522 135.784 205.152 136.06 205.813C136.235 206.159 136.338 206.533 136.364 206.915C142.119 208.321 148.176 208.321 153.931 206.915C153.93 206.902 153.93 206.889 153.931 206.876C153.845 206.517 153.807 206.15 153.819 205.783C153.914 204.752 154.07 203.727 154.287 202.712C154.356 202.212 154.386 201.707 154.376 201.203V201.022C154.362 200.86 154.357 200.714 154.352 200.572V200.568ZM154.352 200.568C154.352 200.409 154.352 200.246 154.32 200.088C154.287 199.929 154.292 199.787 154.268 199.633C154.245 199.479 154.226 199.329 154.203 199.174C154.179 199.02 154.147 198.87 154.114 198.715C154.081 198.561 154.048 198.411 154.011 198.256C154.011 198.205 153.988 198.158 153.974 198.102C153.922 197.901 153.866 197.699 153.805 197.497C153.744 197.296 153.707 197.172 153.651 197.013C153.651 196.94 153.604 196.867 153.576 196.798C153.548 196.73 153.496 196.567 153.454 196.451L153.37 196.228C153.333 196.129 153.295 196.027 153.253 195.928C153.183 195.748 153.108 195.572 153.033 195.392C152.958 195.212 152.879 195.036 152.799 194.86C152.64 194.5 152.467 194.144 152.294 193.784C151.616 192.394 150.853 191.026 150.151 189.671C149.775 188.962 149.441 188.235 149.15 187.493L149.061 187.6C148.919 187.784 148.793 187.977 148.682 188.179C148.682 191.335 144.996 195.199 144.996 195.199L141.285 190.567L138.039 194.856C137.571 195.07 137.103 195.799 136.738 196.837C136.635 197.116 136.537 197.425 136.443 197.746C136.378 197.965 136.317 198.175 136.261 198.419C136.228 198.535 136.2 198.651 136.172 198.771L136.088 199.136V199.191C136.032 199.44 135.975 199.697 135.924 199.959C135.873 200.221 135.812 200.521 135.76 200.817C135.723 201.002 135.69 201.187 135.662 201.37C135.596 201.726 135.54 202.086 135.484 202.446C135.451 202.656 135.419 202.875 135.391 203.068L135.278 203.866C135.517 204.522 135.784 205.152 136.06 205.813C136.235 206.159 136.338 206.533 136.364 206.915C142.119 208.321 148.176 208.321 153.931 206.915C153.93 206.902 153.93 206.889 153.931 206.876C153.845 206.517 153.807 206.15 153.819 205.783C153.914 204.752 154.07 203.727 154.287 202.712C154.356 202.212 154.386 201.707 154.376 201.203V201.022C154.362 200.86 154.357 200.714 154.352 200.572V200.568ZM154.352 200.568C154.352 200.409 154.352 200.246 154.32 200.088C154.287 199.929 154.292 199.787 154.268 199.633C154.245 199.479 154.226 199.329 154.203 199.174C154.179 199.02 154.147 198.87 154.114 198.715C154.081 198.561 154.048 198.411 154.011 198.256C154.011 198.205 153.988 198.158 153.974 198.102C153.922 197.901 153.866 197.699 153.805 197.497C153.744 197.296 153.707 197.172 153.651 197.013C153.651 196.94 153.604 196.867 153.576 196.798C153.548 196.73 153.496 196.567 153.454 196.451L153.37 196.228C153.333 196.129 153.295 196.027 153.253 195.928C153.183 195.748 153.108 195.572 153.033 195.392C152.958 195.212 152.879 195.036 152.799 194.86C152.64 194.5 152.467 194.144 152.294 193.784C151.616 192.394 150.853 191.026 150.151 189.671C149.775 188.962 149.441 188.235 149.15 187.493L149.061 187.6C148.919 187.784 148.793 187.977 148.682 188.179C148.682 191.335 144.996 195.199 144.996 195.199L141.285 190.567L138.039 194.856C137.571 195.07 137.103 195.799 136.738 196.837C136.635 197.116 136.537 197.425 136.443 197.746C136.378 197.965 136.317 198.175 136.261 198.419C136.228 198.535 136.2 198.651 136.172 198.771L136.088 199.136V199.191C136.032 199.44 135.975 199.697 135.924 199.959C135.873 200.221 135.812 200.521 135.76 200.817C135.723 201.002 135.69 201.187 135.662 201.37C135.596 201.726 135.54 202.086 135.484 202.446C135.451 202.656 135.419 202.875 135.391 203.068L135.278 203.866C135.517 204.522 135.784 205.152 136.06 205.813C136.235 206.159 136.338 206.533 136.364 206.915C142.119 208.321 148.176 208.321 153.931 206.915C153.93 206.902 153.93 206.889 153.931 206.876C153.845 206.517 153.807 206.15 153.819 205.783C153.914 204.752 154.07 203.727 154.287 202.712C154.356 202.212 154.386 201.707 154.376 201.203V201.022C154.362 200.86 154.357 200.714 154.352 200.572V200.568Z" fill="url(#paint1_linear)"/>
<path opacity="0.5" d="M154.521 170.656H133V183.95H154.521V170.656Z" fill="#493545"/>
<path opacity="0.5" d="M158.095 185.318L149.089 196.949L139.676 196.198C139.676 196.198 127.395 196.944 135.582 188.32C139.517 184.173 140.804 180.717 141.08 178.251C141.379 175.584 140.495 174.066 140.495 174.066L150.727 172.942C150.265 174.206 150.207 175.564 150.558 176.857C151.84 181.729 158.095 185.318 158.095 185.318Z" fill="#C77485"/>
<path opacity="0.1" d="M150.554 176.845C149.219 177.771 147.657 178.383 146.004 178.626C144.352 178.87 142.659 178.738 141.075 178.243C141.374 175.575 140.49 174.057 140.49 174.057L150.722 172.934C150.261 174.196 150.203 175.553 150.554 176.845Z" fill="black"/>
<path opacity="0.5" d="M144.383 178.371C150.034 178.371 154.615 174.172 154.615 168.993C154.615 163.813 150.034 159.614 144.383 159.614C138.732 159.614 134.151 163.813 134.151 168.993C134.151 174.172 138.732 178.371 144.383 178.371Z" fill="#C77485"/>
<path opacity="0.1" d="M157.721 185.799L157.482 184.941L157.277 184.186L156.973 183.071L156.916 182.865L156.87 182.694C156.87 182.694 157.113 182.021 155.508 182.239L155.209 182.287C154.956 182.334 154.661 182.398 154.325 182.484L154.02 182.57L153.618 182.685C152.344 183.066 151.182 183.708 150.222 184.564C149.79 184.942 149.409 185.365 149.085 185.824C149.052 185.867 149.028 185.906 149 185.94C148.89 186.1 148.791 186.266 148.706 186.438C148.706 189.817 145.019 193.942 145.019 193.942L141.421 189.178L141.351 189.084L140.495 187.943L140.191 187.574L140.088 187.445L138.217 185.143L137.749 184.568L137.594 184.375L137.365 184.096L136.827 183.44L134.722 184.568L131.915 186.069L130.277 195.825V196.095L130.329 196.901L130.67 202.202V202.275L130.071 204.47L130.16 204.513C131.573 205.212 133.044 205.808 134.558 206.297L134.956 206.426C135.423 206.567 135.863 206.696 136.322 206.82C136.339 206.884 136.351 206.948 136.359 207.013C136.359 206.953 136.359 206.889 136.359 206.829C142.1 208.333 148.186 208.333 153.927 206.829L154.034 206.799C154.301 206.73 154.572 206.657 154.834 206.576L155.26 206.452C156.415 206.098 157.546 205.682 158.647 205.208L159.04 197.532L159.321 191.995V191.678L157.721 185.799Z" fill="black"/>
<path opacity="0.5" d="M154.353 200.058C154.353 199.886 154.353 199.715 154.32 199.543C154.287 199.371 154.292 199.221 154.268 199.058C154.245 198.895 154.226 198.732 154.203 198.57C154.18 198.407 154.147 198.244 154.114 198.081C154.081 197.918 154.049 197.755 154.011 197.592C154.011 197.536 153.988 197.485 153.974 197.429C153.922 197.214 153.866 197 153.805 196.781C153.745 196.563 153.707 196.434 153.651 196.262C153.651 196.185 153.604 196.108 153.576 196.035C153.548 195.962 153.497 195.786 153.454 195.662L153.37 195.422C153.333 195.315 153.295 195.207 153.253 195.1C153.183 194.907 153.108 194.719 153.033 194.526C152.959 194.333 152.879 194.144 152.799 193.955C152.64 193.569 152.467 193.188 152.294 192.806C151.616 191.322 150.853 189.86 150.151 188.41C149.774 187.65 149.44 186.873 149.15 186.082L149.061 186.198C148.919 186.395 148.792 186.601 148.682 186.815C148.682 190.19 144.996 194.32 144.996 194.32L141.286 189.367L138.039 193.942C137.571 194.17 137.103 194.95 136.738 196.061C136.635 196.361 136.537 196.687 136.443 197.034C136.378 197.266 136.317 197.51 136.261 197.755C136.228 197.879 136.2 198.003 136.172 198.132L136.088 198.522V198.582C136.032 198.848 135.976 199.123 135.924 199.401C135.873 199.68 135.812 200.002 135.76 200.306C135.723 200.504 135.69 200.701 135.662 200.898C135.597 201.28 135.541 201.666 135.484 202.047C135.452 202.27 135.419 202.476 135.391 202.712L135.279 203.57C135.517 204.273 135.784 204.968 136.06 205.65C136.236 206.023 136.339 206.423 136.364 206.829C142.105 208.333 148.191 208.333 153.932 206.829C153.93 206.815 153.93 206.8 153.932 206.786C153.845 206.401 153.808 206.008 153.819 205.615C153.914 204.515 154.07 203.42 154.287 202.335C154.356 201.8 154.386 201.261 154.376 200.722V200.529C154.362 200.366 154.357 200.212 154.353 200.058ZM154.353 200.058C154.353 199.886 154.353 199.715 154.32 199.543C154.287 199.371 154.292 199.221 154.268 199.058C154.245 198.895 154.226 198.732 154.203 198.57C154.18 198.407 154.147 198.244 154.114 198.081C154.081 197.918 154.049 197.755 154.011 197.592C154.011 197.536 153.988 197.485 153.974 197.429C153.922 197.214 153.866 197 153.805 196.781C153.745 196.563 153.707 196.434 153.651 196.262C153.651 196.185 153.604 196.108 153.576 196.035C153.548 195.962 153.497 195.786 153.454 195.662L153.37 195.422C153.333 195.315 153.295 195.207 153.253 195.1C153.183 194.907 153.108 194.719 153.033 194.526C152.959 194.333 152.879 194.144 152.799 193.955C152.64 193.569 152.467 193.188 152.294 192.806C151.616 191.322 150.853 189.86 150.151 188.41C149.774 187.65 149.44 186.873 149.15 186.082L149.061 186.198C148.919 186.395 148.792 186.601 148.682 186.815C148.682 190.19 144.996 194.32 144.996 194.32L141.286 189.367L138.039 193.942C137.571 194.17 137.103 194.95 136.738 196.061C136.635 196.361 136.537 196.687 136.443 197.034C136.378 197.266 136.317 197.51 136.261 197.755C136.228 197.879 136.2 198.003 136.172 198.132L136.088 198.522V198.582C136.032 198.848 135.976 199.123 135.924 199.401C135.873 199.68 135.812 200.002 135.76 200.306C135.723 200.504 135.69 200.701 135.662 200.898C135.597 201.28 135.541 201.666 135.484 202.047C135.452 202.27 135.419 202.476 135.391 202.712L135.279 203.57C135.517 204.273 135.784 204.968 136.06 205.65C136.236 206.023 136.339 206.423 136.364 206.829C142.105 208.333 148.191 208.333 153.932 206.829C153.93 206.815 153.93 206.8 153.932 206.786C153.845 206.401 153.808 206.008 153.819 205.615C153.914 204.515 154.07 203.42 154.287 202.335C154.356 201.8 154.386 201.261 154.376 200.722V200.529C154.362 200.366 154.357 200.212 154.353 200.058ZM154.353 200.058C154.353 199.886 154.353 199.715 154.32 199.543C154.287 199.371 154.292 199.221 154.268 199.058C154.245 198.895 154.226 198.732 154.203 198.57C154.18 198.407 154.147 198.244 154.114 198.081C154.081 197.918 154.049 197.755 154.011 197.592C154.011 197.536 153.988 197.485 153.974 197.429C153.922 197.214 153.866 197 153.805 196.781C153.745 196.563 153.707 196.434 153.651 196.262C153.651 196.185 153.604 196.108 153.576 196.035C153.548 195.962 153.497 195.786 153.454 195.662L153.37 195.422C153.333 195.315 153.295 195.207 153.253 195.1C153.183 194.907 153.108 194.719 153.033 194.526C152.959 194.333 152.879 194.144 152.799 193.955C152.64 193.569 152.467 193.188 152.294 192.806C151.616 191.322 150.853 189.86 150.151 188.41C149.774 187.65 149.44 186.873 149.15 186.082L149.061 186.198C148.919 186.395 148.792 186.601 148.682 186.815C148.682 190.19 144.996 194.32 144.996 194.32L141.286 189.367L138.039 193.942C137.571 194.17 137.103 194.95 136.738 196.061C136.635 196.361 136.537 196.687 136.443 197.034C136.378 197.266 136.317 197.51 136.261 197.755C136.228 197.879 136.2 198.003 136.172 198.132L136.088 198.522V198.582C136.032 198.848 135.976 199.123 135.924 199.401C135.873 199.68 135.812 200.002 135.76 200.306C135.723 200.504 135.69 200.701 135.662 200.898C135.597 201.28 135.541 201.666 135.484 202.047C135.452 202.27 135.419 202.476 135.391 202.712L135.279 203.57C135.517 204.273 135.784 204.968 136.06 205.65C136.236 206.023 136.339 206.423 136.364 206.829C142.105 208.333 148.191 208.333 153.932 206.829C153.93 206.815 153.93 206.8 153.932 206.786C153.845 206.401 153.808 206.008 153.819 205.615C153.914 204.515 154.07 203.42 154.287 202.335C154.356 201.8 154.386 201.261 154.376 200.722V200.529C154.362 200.366 154.357 200.212 154.353 200.058ZM159.312 192.008L157.642 185.897L157.356 184.851L157.277 184.564L156.87 183.071C156.871 183.058 156.871 183.046 156.87 183.033C156.879 182.967 156.868 182.9 156.837 182.84C156.776 182.728 156.622 182.612 156.262 182.582C156.124 182.574 155.987 182.574 155.85 182.582C155.443 182.619 155.041 182.688 154.647 182.788C154.456 182.835 154.25 182.887 154.03 182.951L153.628 183.067H153.59C152.513 183.391 151.512 183.901 150.643 184.568C150.068 185.007 149.564 185.518 149.146 186.086L149.057 186.202C148.914 186.399 148.788 186.605 148.678 186.819C148.678 190.194 144.991 194.324 144.991 194.324L141.281 189.371L141.071 189.092L141.033 189.045L140.495 188.32L140.088 187.823L139.98 187.694L138.062 185.348L137.454 184.589V184.564L137.243 184.302L136.841 183.813L135.438 184.564L131.929 186.438L130.31 196.091V196.194L130.357 196.897L130.703 202.27V202.575L130.174 204.509C131.587 205.208 133.058 205.804 134.572 206.293L134.97 206.422C135.438 206.563 135.877 206.692 136.336 206.816C136.353 206.88 136.365 206.944 136.373 207.009C136.373 206.949 136.373 206.885 136.373 206.825C142.114 208.328 148.2 208.328 153.941 206.825L154.049 206.795C154.315 206.726 154.587 206.653 154.849 206.572L155.274 206.447C156.429 206.093 157.56 205.678 158.662 205.204L159.05 197.536L159.331 192.06L159.312 192.008ZM136.303 206.816C136.32 206.88 136.333 206.944 136.341 207.009C136.341 206.949 136.341 206.885 136.341 206.825L136.303 206.816ZM154.353 200.058C154.353 199.886 154.353 199.715 154.32 199.543C154.287 199.371 154.292 199.221 154.268 199.058C154.245 198.895 154.226 198.732 154.203 198.57C154.18 198.407 154.147 198.244 154.114 198.081C154.081 197.918 154.049 197.755 154.011 197.592C154.011 197.536 153.988 197.485 153.974 197.429C153.922 197.214 153.866 197 153.805 196.781C153.745 196.563 153.707 196.434 153.651 196.262C153.651 196.185 153.604 196.108 153.576 196.035C153.548 195.962 153.497 195.786 153.454 195.662L153.37 195.422C153.333 195.315 153.295 195.207 153.253 195.1C153.183 194.907 153.108 194.719 153.033 194.526C152.959 194.333 152.879 194.144 152.799 193.955C152.64 193.569 152.467 193.188 152.294 192.806C151.616 191.322 150.853 189.86 150.151 188.41C149.774 187.65 149.44 186.873 149.15 186.082L149.061 186.198C148.919 186.395 148.792 186.601 148.682 186.815C148.682 190.19 144.996 194.32 144.996 194.32L141.286 189.367L138.039 193.942C137.571 194.17 137.103 194.95 136.738 196.061C136.635 196.361 136.537 196.687 136.443 197.034C136.378 197.266 136.317 197.51 136.261 197.755C136.228 197.879 136.2 198.003 136.172 198.132L136.088 198.522V198.582C136.032 198.848 135.976 199.123 135.924 199.401C135.873 199.68 135.812 200.002 135.76 200.306C135.723 200.504 135.69 200.701 135.662 200.898C135.597 201.28 135.541 201.666 135.484 202.047C135.452 202.27 135.419 202.476 135.391 202.712L135.279 203.57C135.517 204.273 135.784 204.968 136.06 205.65C136.236 206.023 136.339 206.423 136.364 206.829C142.105 208.333 148.191 208.333 153.932 206.829C153.93 206.815 153.93 206.8 153.932 206.786C153.845 206.401 153.808 206.008 153.819 205.615C153.914 204.515 154.07 203.42 154.287 202.335C154.356 201.8 154.386 201.261 154.376 200.722V200.529C154.362 200.366 154.357 200.212 154.353 200.058ZM154.353 200.058C154.353 199.886 154.353 199.715 154.32 199.543C154.287 199.371 154.292 199.221 154.268 199.058C154.245 198.895 154.226 198.732 154.203 198.57C154.18 198.407 154.147 198.244 154.114 198.081C154.081 197.918 154.049 197.755 154.011 197.592C154.011 197.536 153.988 197.485 153.974 197.429C153.922 197.214 153.866 197 153.805 196.781C153.745 196.563 153.707 196.434 153.651 196.262C153.651 196.185 153.604 196.108 153.576 196.035C153.548 195.962 153.497 195.786 153.454 195.662L153.37 195.422C153.333 195.315 153.295 195.207 153.253 195.1C153.183 194.907 153.108 194.719 153.033 194.526C152.959 194.333 152.879 194.144 152.799 193.955C152.64 193.569 152.467 193.188 152.294 192.806C151.616 191.322 150.853 189.86 150.151 188.41C149.774 187.65 149.44 186.873 149.15 186.082L149.061 186.198C148.919 186.395 148.792 186.601 148.682 186.815C148.682 190.19 144.996 194.32 144.996 194.32L141.286 189.367L138.039 193.942C137.571 194.17 137.103 194.95 136.738 196.061C136.635 196.361 136.537 196.687 136.443 197.034C136.378 197.266 136.317 197.51 136.261 197.755C136.228 197.879 136.2 198.003 136.172 198.132L136.088 198.522V198.582C136.032 198.848 135.976 199.123 135.924 199.401C135.873 199.68 135.812 200.002 135.76 200.306C135.723 200.504 135.69 200.701 135.662 200.898C135.597 201.28 135.541 201.666 135.484 202.047C135.452 202.27 135.419 202.476 135.391 202.712L135.279 203.57C135.517 204.273 135.784 204.968 136.06 205.65C136.236 206.023 136.339 206.423 136.364 206.829C142.105 208.333 148.191 208.333 153.932 206.829C153.93 206.815 153.93 206.8 153.932 206.786C153.845 206.401 153.808 206.008 153.819 205.615C153.914 204.515 154.07 203.42 154.287 202.335C154.356 201.8 154.386 201.261 154.376 200.722V200.529C154.362 200.366 154.357 200.212 154.353 200.058ZM154.353 200.058C154.353 199.886 154.353 199.715 154.32 199.543C154.287 199.371 154.292 199.221 154.268 199.058C154.245 198.895 154.226 198.732 154.203 198.57C154.18 198.407 154.147 198.244 154.114 198.081C154.081 197.918 154.049 197.755 154.011 197.592C154.011 197.536 153.988 197.485 153.974 197.429C153.922 197.214 153.866 197 153.805 196.781C153.745 196.563 153.707 196.434 153.651 196.262C153.651 196.185 153.604 196.108 153.576 196.035C153.548 195.962 153.497 195.786 153.454 195.662L153.37 195.422C153.333 195.315 153.295 195.207 153.253 195.1C153.183 194.907 153.108 194.719 153.033 194.526C152.959 194.333 152.879 194.144 152.799 193.955C152.64 193.569 152.467 193.188 152.294 192.806C151.616 191.322 150.853 189.86 150.151 188.41C149.774 187.65 149.44 186.873 149.15 186.082L149.061 186.198C148.919 186.395 148.792 186.601 148.682 186.815C148.682 190.19 144.996 194.32 144.996 194.32L141.286 189.367L138.039 193.942C137.571 194.17 137.103 194.95 136.738 196.061C136.635 196.361 136.537 196.687 136.443 197.034C136.378 197.266 136.317 197.51 136.261 197.755C136.228 197.879 136.2 198.003 136.172 198.132L136.088 198.522V198.582C136.032 198.848 135.976 199.123 135.924 199.401C135.873 199.68 135.812 200.002 135.76 200.306C135.723 200.504 135.69 200.701 135.662 200.898C135.597 201.28 135.541 201.666 135.484 202.047C135.452 202.27 135.419 202.476 135.391 202.712L135.279 203.57C135.517 204.273 135.784 204.968 136.06 205.65C136.236 206.023 136.339 206.423 136.364 206.829C142.105 208.333 148.191 208.333 153.932 206.829C153.93 206.815 153.93 206.8 153.932 206.786C153.845 206.401 153.808 206.008 153.819 205.615C153.914 204.515 154.07 203.42 154.287 202.335C154.356 201.8 154.386 201.261 154.376 200.722V200.529C154.362 200.366 154.357 200.212 154.353 200.058ZM154.353 200.058C154.353 199.886 154.353 199.715 154.32 199.543C154.287 199.371 154.292 199.221 154.268 199.058C154.245 198.895 154.226 198.732 154.203 198.57C154.18 198.407 154.147 198.244 154.114 198.081C154.081 197.918 154.049 197.755 154.011 197.592C154.011 197.536 153.988 197.485 153.974 197.429C153.922 197.214 153.866 197 153.805 196.781C153.745 196.563 153.707 196.434 153.651 196.262C153.651 196.185 153.604 196.108 153.576 196.035C153.548 195.962 153.497 195.786 153.454 195.662L153.37 195.422C153.333 195.315 153.295 195.207 153.253 195.1C153.183 194.907 153.108 194.719 153.033 194.526C152.959 194.333 152.879 194.144 152.799 193.955C152.64 193.569 152.467 193.188 152.294 192.806C151.616 191.322 150.853 189.86 150.151 188.41C149.774 187.65 149.44 186.873 149.15 186.082L149.061 186.198C148.919 186.395 148.792 186.601 148.682 186.815C148.682 190.19 144.996 194.32 144.996 194.32L141.286 189.367L138.039 193.942C137.571 194.17 137.103 194.95 136.738 196.061C136.635 196.361 136.537 196.687 136.443 197.034C136.378 197.266 136.317 197.51 136.261 197.755C136.228 197.879 136.2 198.003 136.172 198.132L136.088 198.522V198.582C136.032 198.848 135.976 199.123 135.924 199.401C135.873 199.68 135.812 200.002 135.76 200.306C135.723 200.504 135.69 200.701 135.662 200.898C135.597 201.28 135.541 201.666 135.484 202.047C135.452 202.27 135.419 202.476 135.391 202.712L135.279 203.57C135.517 204.273 135.784 204.968 136.06 205.65C136.236 206.023 136.339 206.423 136.364 206.829C142.105 208.333 148.191 208.333 153.932 206.829C153.93 206.815 153.93 206.8 153.932 206.786C153.845 206.401 153.808 206.008 153.819 205.615C153.914 204.515 154.07 203.42 154.287 202.335C154.356 201.8 154.386 201.261 154.376 200.722V200.529C154.362 200.366 154.357 200.212 154.353 200.058ZM154.353 200.058C154.353 199.886 154.353 199.715 154.32 199.543C154.287 199.371 154.292 199.221 154.268 199.058C154.245 198.895 154.226 198.732 154.203 198.57C154.18 198.407 154.147 198.244 154.114 198.081C154.081 197.918 154.049 197.755 154.011 197.592C154.011 197.536 153.988 197.485 153.974 197.429C153.922 197.214 153.866 197 153.805 196.781C153.745 196.563 153.707 196.434 153.651 196.262C153.651 196.185 153.604 196.108 153.576 196.035C153.548 195.962 153.497 195.786 153.454 195.662L153.37 195.422C153.333 195.315 153.295 195.207 153.253 195.1C153.183 194.907 153.108 194.719 153.033 194.526C152.959 194.333 152.879 194.144 152.799 193.955C152.64 193.569 152.467 193.188 152.294 192.806C151.616 191.322 150.853 189.86 150.151 188.41C149.774 187.65 149.44 186.873 149.15 186.082L149.061 186.198C148.919 186.395 148.792 186.601 148.682 186.815C148.682 190.19 144.996 194.32 144.996 194.32L141.286 189.367L138.039 193.942C137.571 194.17 137.103 194.95 136.738 196.061C136.635 196.361 136.537 196.687 136.443 197.034C136.378 197.266 136.317 197.51 136.261 197.755C136.228 197.879 136.2 198.003 136.172 198.132L136.088 198.522V198.582C136.032 198.848 135.976 199.123 135.924 199.401C135.873 199.68 135.812 200.002 135.76 200.306C135.723 200.504 135.69 200.701 135.662 200.898C135.597 201.28 135.541 201.666 135.484 202.047C135.452 202.27 135.419 202.476 135.391 202.712L135.279 203.57C135.517 204.273 135.784 204.968 136.06 205.65C136.236 206.023 136.339 206.423 136.364 206.829C142.105 208.333 148.191 208.333 153.932 206.829C153.93 206.815 153.93 206.8 153.932 206.786C153.845 206.401 153.808 206.008 153.819 205.615C153.914 204.515 154.07 203.42 154.287 202.335C154.356 201.8 154.386 201.261 154.376 200.722V200.529C154.362 200.366 154.357 200.212 154.353 200.058ZM154.353 200.058C154.353 199.886 154.353 199.715 154.32 199.543C154.287 199.371 154.292 199.221 154.268 199.058C154.245 198.895 154.226 198.732 154.203 198.57C154.18 198.407 154.147 198.244 154.114 198.081C154.081 197.918 154.049 197.755 154.011 197.592C154.011 197.536 153.988 197.485 153.974 197.429C153.922 197.214 153.866 197 153.805 196.781C153.745 196.563 153.707 196.434 153.651 196.262C153.651 196.185 153.604 196.108 153.576 196.035C153.548 195.962 153.497 195.786 153.454 195.662L153.37 195.422C153.333 195.315 153.295 195.207 153.253 195.1C153.183 194.907 153.108 194.719 153.033 194.526C152.959 194.333 152.879 194.144 152.799 193.955C152.64 193.569 152.467 193.188 152.294 192.806C151.616 191.322 150.853 189.86 150.151 188.41C149.774 187.65 149.44 186.873 149.15 186.082L149.061 186.198C148.919 186.395 148.792 186.601 148.682 186.815C148.682 190.19 144.996 194.32 144.996 194.32L141.286 189.367L138.039 193.942C137.571 194.17 137.103 194.95 136.738 196.061C136.635 196.361 136.537 196.687 136.443 197.034C136.378 197.266 136.317 197.51 136.261 197.755C136.228 197.879 136.2 198.003 136.172 198.132L136.088 198.522V198.582C136.032 198.848 135.976 199.123 135.924 199.401C135.873 199.68 135.812 200.002 135.76 200.306C135.723 200.504 135.69 200.701 135.662 200.898C135.597 201.28 135.541 201.666 135.484 202.047C135.452 202.27 135.419 202.476 135.391 202.712L135.279 203.57C135.517 204.273 135.784 204.968 136.06 205.65C136.236 206.023 136.339 206.423 136.364 206.829C142.105 208.333 148.191 208.333 153.932 206.829C153.93 206.815 153.93 206.8 153.932 206.786C153.845 206.401 153.808 206.008 153.819 205.615C153.914 204.515 154.07 203.42 154.287 202.335C154.356 201.8 154.386 201.261 154.376 200.722V200.529C154.362 200.366 154.357 200.212 154.353 200.058ZM154.353 200.058C154.353 199.886 154.353 199.715 154.32 199.543C154.287 199.371 154.292 199.221 154.268 199.058C154.245 198.895 154.226 198.732 154.203 198.57C154.18 198.407 154.147 198.244 154.114 198.081C154.081 197.918 154.049 197.755 154.011 197.592C154.011 197.536 153.988 197.485 153.974 197.429C153.922 197.214 153.866 197 153.805 196.781C153.745 196.563 153.707 196.434 153.651 196.262C153.651 196.185 153.604 196.108 153.576 196.035C153.548 195.962 153.497 195.786 153.454 195.662L153.37 195.422C153.333 195.315 153.295 195.207 153.253 195.1C153.183 194.907 153.108 194.719 153.033 194.526C152.959 194.333 152.879 194.144 152.799 193.955C152.64 193.569 152.467 193.188 152.294 192.806C151.616 191.322 150.853 189.86 150.151 188.41C149.774 187.65 149.44 186.873 149.15 186.082L149.061 186.198C148.919 186.395 148.792 186.601 148.682 186.815C148.682 190.19 144.996 194.32 144.996 194.32L141.286 189.367L138.039 193.942C137.571 194.17 137.103 194.95 136.738 196.061C136.635 196.361 136.537 196.687 136.443 197.034C136.378 197.266 136.317 197.51 136.261 197.755C136.228 197.879 136.2 198.003 136.172 198.132L136.088 198.522V198.582C136.032 198.848 135.976 199.123 135.924 199.401C135.873 199.68 135.812 200.002 135.76 200.306C135.723 200.504 135.69 200.701 135.662 200.898C135.597 201.28 135.541 201.666 135.484 202.047C135.452 202.27 135.419 202.476 135.391 202.712L135.279 203.57C135.517 204.273 135.784 204.968 136.06 205.65C136.236 206.023 136.339 206.423 136.364 206.829C142.105 208.333 148.191 208.333 153.932 206.829C153.93 206.815 153.93 206.8 153.932 206.786C153.845 206.401 153.808 206.008 153.819 205.615C153.914 204.515 154.07 203.42 154.287 202.335C154.356 201.8 154.386 201.261 154.376 200.722V200.529C154.362 200.366 154.357 200.212 154.353 200.058ZM154.353 200.058C154.353 199.886 154.353 199.715 154.32 199.543C154.287 199.371 154.292 199.221 154.268 199.058C154.245 198.895 154.226 198.732 154.203 198.57C154.18 198.407 154.147 198.244 154.114 198.081C154.081 197.918 154.049 197.755 154.011 197.592C154.011 197.536 153.988 197.485 153.974 197.429C153.922 197.214 153.866 197 153.805 196.781C153.745 196.563 153.707 196.434 153.651 196.262C153.651 196.185 153.604 196.108 153.576 196.035C153.548 195.962 153.497 195.786 153.454 195.662L153.37 195.422C153.333 195.315 153.295 195.207 153.253 195.1C153.183 194.907 153.108 194.719 153.033 194.526C152.959 194.333 152.879 194.144 152.799 193.955C152.64 193.569 152.467 193.188 152.294 192.806C151.616 191.322 150.853 189.86 150.151 188.41C149.774 187.65 149.44 186.873 149.15 186.082L149.061 186.198C148.919 186.395 148.792 186.601 148.682 186.815C148.682 190.19 144.996 194.32 144.996 194.32L141.286 189.367L138.039 193.942C137.571 194.17 137.103 194.95 136.738 196.061C136.635 196.361 136.537 196.687 136.443 197.034C136.378 197.266 136.317 197.51 136.261 197.755C136.228 197.879 136.2 198.003 136.172 198.132L136.088 198.522V198.582C136.032 198.848 135.976 199.123 135.924 199.401C135.873 199.68 135.812 200.002 135.76 200.306C135.723 200.504 135.69 200.701 135.662 200.898C135.597 201.28 135.541 201.666 135.484 202.047C135.452 202.27 135.419 202.476 135.391 202.712L135.279 203.57C135.517 204.273 135.784 204.968 136.06 205.65C136.236 206.023 136.339 206.423 136.364 206.829C142.105 208.333 148.191 208.333 153.932 206.829C153.93 206.815 153.93 206.8 153.932 206.786C153.845 206.401 153.808 206.008 153.819 205.615C153.914 204.515 154.07 203.42 154.287 202.335C154.356 201.8 154.386 201.261 154.376 200.722V200.529C154.362 200.366 154.357 200.212 154.353 200.058Z" fill="white"/>
<path opacity="0.1" d="M141.351 189.079L141.038 189.041C140.564 188.982 140.096 188.896 139.634 188.783L139.461 188.741C138.319 188.445 137.07 187.913 136.79 186.978C136.706 186.677 136.716 186.361 136.818 186.065C136.975 185.554 137.188 185.06 137.454 184.589V184.564C137.489 184.497 137.528 184.433 137.571 184.371C137.957 183.679 138.541 183.096 139.26 182.685L138.698 182.767L133.945 183.474L126.576 184.564C126.576 184.564 125.266 184.323 123.484 188.826C123.484 188.882 123.442 188.933 123.423 188.994C122.993 190.096 122.539 191.472 122.071 193.192C121.748 194.384 121.454 195.555 121.182 196.691C121.103 197.034 121.023 197.373 120.948 197.708C121.792 198.619 122.7 199.478 123.666 200.281L123.821 200.414C125.714 201.985 127.806 203.343 130.053 204.457L130.141 204.5C131.555 205.199 133.025 205.795 134.539 206.284L134.937 206.413C135.021 205.62 135.115 204.74 135.227 203.84C135.227 203.75 135.227 203.66 135.264 203.57L135.377 202.712C135.405 202.493 135.438 202.283 135.47 202.047C135.526 201.666 135.583 201.28 135.648 200.898C135.676 200.701 135.709 200.504 135.746 200.306C135.798 200.002 135.854 199.697 135.91 199.401C135.966 199.106 136.018 198.848 136.074 198.582V198.522L136.158 198.132C136.186 198.003 136.214 197.879 136.247 197.755C136.303 197.51 136.364 197.266 136.429 197.034C136.523 196.687 136.621 196.361 136.724 196.061C137.098 194.95 137.533 194.17 138.025 193.942L141.272 189.367L141.407 189.174L141.468 189.088L141.351 189.079Z" fill="black"/>
<path opacity="0.1" d="M135.442 158.705C134.974 159.296 135.012 160.111 134.801 160.849C134.3 162.526 132.317 163.576 131.863 165.266C131.596 166.252 131.905 167.299 131.723 168.302C131.39 170.15 129.547 171.403 128.518 173.019C127.996 173.852 127.687 174.783 127.613 175.741C127.539 176.699 127.703 177.66 128.092 178.551C128.333 179.001 128.532 179.469 128.686 179.949C128.804 180.665 128.755 181.396 128.541 182.094C128.19 183.62 127.83 185.301 128.635 186.678C129.313 187.84 130.721 188.522 132.139 188.736C133.57 188.885 135.018 188.824 136.429 188.556C137.978 188.337 139.564 188.084 140.911 187.355L135.844 176.146C135.334 175.013 134.81 173.843 134.815 172.616C134.856 171.711 135.07 170.82 135.447 169.983C136.428 167.558 137.851 165.303 139.657 163.315C140.392 164.095 140.336 165.283 140.949 166.149C141.49 166.79 142.211 167.283 143.035 167.577C145.436 168.651 147.902 169.596 150.422 170.408C150.581 170.426 150.731 170.48 150.861 170.564C150.991 170.648 151.097 170.761 151.168 170.891C151.239 171.022 151.274 171.167 151.27 171.313C151.266 171.459 151.222 171.602 151.143 171.728L149.234 178.95C148.813 180.541 148.443 182.381 149.524 183.667C150.605 184.954 153.042 185.563 153.056 187.222C153.036 187.485 153.036 187.749 153.056 188.012C153.183 188.788 154.189 189.161 155.045 189.199C156.45 189.225 157.82 188.792 158.909 187.977C159.998 187.162 160.736 186.02 160.991 184.752C161.459 181.913 159.41 179.298 158.554 176.531C157.113 171.879 159.021 166.419 156.191 162.333C153.899 159.018 149.721 158.117 145.753 157.705C142.97 157.405 137.402 156.333 135.442 158.705Z" fill="black"/>
<path opacity="0.5" d="M135.442 158.276C134.974 158.868 135.012 159.682 134.801 160.42C134.3 162.097 132.317 163.147 131.863 164.837C131.596 165.823 131.905 166.87 131.723 167.873C131.39 169.722 129.547 170.974 128.518 172.59C127.996 173.423 127.687 174.354 127.613 175.312C127.539 176.27 127.703 177.231 128.092 178.122C128.333 178.572 128.532 179.04 128.686 179.521C128.804 180.237 128.755 180.967 128.541 181.665C128.19 183.191 127.83 184.872 128.635 186.249C129.313 187.411 130.721 188.093 132.139 188.307C133.57 188.456 135.018 188.395 136.429 188.127C137.978 187.909 139.564 187.656 140.911 186.927L135.844 175.717C135.334 174.585 134.81 173.414 134.815 172.187C134.856 171.283 135.07 170.391 135.447 169.554C136.428 167.129 137.851 164.874 139.657 162.886C140.392 163.666 140.336 164.854 140.949 165.72C141.49 166.361 142.211 166.855 143.035 167.149C145.436 168.222 147.902 169.167 150.422 169.979C150.581 169.997 150.731 170.051 150.861 170.135C150.991 170.219 151.097 170.332 151.168 170.463C151.239 170.593 151.274 170.738 151.27 170.884C151.266 171.03 151.222 171.173 151.143 171.3L149.234 178.521C148.813 180.112 148.443 181.952 149.524 183.239C150.605 184.525 153.042 185.134 153.056 186.794C153.036 187.056 153.036 187.32 153.056 187.583C153.183 188.359 154.189 188.732 155.045 188.771C156.45 188.796 157.82 188.363 158.909 187.548C159.998 186.734 160.736 185.591 160.991 184.323C161.459 181.485 159.41 178.869 158.554 176.103C157.113 171.45 159.021 165.991 156.191 161.904C153.899 158.589 149.721 157.688 145.753 157.277C142.97 156.976 137.402 155.904 135.442 158.276Z" fill="#493545"/>
</g>
<g opacity="0.5">
<path opacity="0.5" d="M132.565 273.14C132.607 274.577 131.54 275.803 130.694 277C129.847 278.196 129.22 279.83 130.09 281.027C130.375 281.421 130.806 281.726 131.063 282.137C131.966 283.574 130.464 285.225 129.917 286.803C129.285 288.626 130.02 290.663 131.349 292.142C132.677 293.622 134.511 294.621 136.364 295.5C140.259 297.403 144.44 298.767 148.771 299.548C151.036 299.93 153.45 300.101 155.574 299.269C157.047 298.65 158.251 297.594 158.992 296.272C159.733 294.95 159.967 293.438 159.658 291.979C159.12 289.724 157.319 287.91 156.383 285.778C156.165 285.36 156.059 284.9 156.074 284.436C156.154 283.625 156.832 282.991 157.361 282.335C158.687 280.548 159.228 278.369 158.877 276.232C158.507 274.096 157.615 272.064 156.266 270.289C155.784 269.553 155.148 268.911 154.395 268.402C153.375 267.771 152.112 267.591 150.895 267.432C145.814 266.781 140.551 266.069 135.428 265.829C133.809 265.751 132.621 266.043 131.821 267.432C130.6 269.504 132.504 271.06 132.565 273.14Z" fill="#444176"/>
<path opacity="0.5" d="M158.732 287.725L149.089 300.294L139.676 299.544C139.676 299.544 139.367 302.546 135.582 291.666C133.468 285.581 137.767 287.695 138.614 286.01C139.461 284.324 140.953 282.836 141.08 281.593C141.379 278.925 140.495 277.407 140.495 277.407L150.727 276.284C150.265 277.548 150.207 278.906 150.558 280.199C151.84 285.079 158.732 287.725 158.732 287.725Z" fill="#C77485"/>
<path opacity="0.5" d="M144.229 277.008C150.947 277.008 156.393 273.072 156.393 268.217C156.393 263.362 150.947 259.426 144.229 259.426C137.51 259.426 132.064 263.362 132.064 268.217C132.064 273.072 137.51 277.008 144.229 277.008Z" fill="#444176"/>
<path opacity="0.1" d="M150.554 280.195C149.219 281.121 147.657 281.733 146.004 281.977C144.352 282.22 142.659 282.089 141.075 281.593C141.374 278.925 140.49 277.407 140.49 277.407L150.722 276.284C150.261 277.546 150.203 278.903 150.554 280.195Z" fill="black"/>
<path opacity="0.5" d="M144.383 281.721C150.034 281.721 154.615 277.522 154.615 272.343C154.615 267.163 150.034 262.964 144.383 262.964C138.732 262.964 134.151 267.163 134.151 272.343C134.151 277.522 138.732 281.721 144.383 281.721Z" fill="#C77485"/>
<path opacity="0.1" d="M157.721 289.149L157.482 288.291L157.277 287.536L156.973 286.421L156.916 286.216L156.87 286.044C156.87 286.044 157.113 285.371 155.508 285.589L155.209 285.637C154.956 285.684 154.661 285.748 154.325 285.834L154.02 285.92L153.618 286.035C152.344 286.416 151.182 287.058 150.222 287.914C149.79 288.292 149.409 288.715 149.085 289.175C149.052 289.217 149.028 289.256 149 289.29C148.89 289.45 148.791 289.616 148.706 289.788C148.706 293.167 145.019 297.292 145.019 297.292L141.421 292.528L141.351 292.434L140.495 291.293L140.191 290.924L140.088 290.796L138.217 288.493L137.749 287.918L137.594 287.725L137.365 287.446L136.827 286.79L134.722 287.918L131.915 289.419L130.277 299.175V299.445L130.329 300.251L130.67 305.552V305.625L130.071 307.82L130.16 307.863C131.573 308.562 133.044 309.158 134.558 309.647L134.956 309.776C135.423 309.917 135.863 310.046 136.322 310.171C136.339 310.234 136.351 310.299 136.359 310.364C136.359 310.303 136.359 310.239 136.359 310.179C142.1 311.683 148.186 311.683 153.927 310.179L154.034 310.149C154.301 310.08 154.572 310.008 154.834 309.926L155.26 309.802C156.415 309.448 157.546 309.033 158.647 308.558L159.04 300.882L159.321 295.346V295.028L157.721 289.149Z" fill="black"/>
<path opacity="0.5" d="M154.353 303.408C154.353 303.236 154.353 303.065 154.32 302.893C154.287 302.722 154.292 302.572 154.268 302.409C154.245 302.246 154.226 302.083 154.203 301.92C154.18 301.757 154.147 301.594 154.114 301.431C154.081 301.268 154.049 301.105 154.011 300.942C154.011 300.886 153.988 300.835 153.974 300.779C153.922 300.565 153.866 300.35 153.805 300.131C153.745 299.913 153.707 299.784 153.651 299.613C153.651 299.535 153.604 299.458 153.576 299.385C153.548 299.312 153.497 299.137 153.454 299.012L153.37 298.772C153.333 298.665 153.295 298.558 153.253 298.45C153.183 298.257 153.108 298.069 153.033 297.876C152.959 297.683 152.879 297.494 152.799 297.305C152.64 296.919 152.467 296.538 152.294 296.156C151.616 294.672 150.853 293.21 150.151 291.761C149.774 291.001 149.44 290.223 149.15 289.432L149.061 289.548C148.919 289.745 148.792 289.951 148.682 290.165C148.682 293.54 144.996 297.67 144.996 297.67L141.286 292.717L138.039 297.293C137.571 297.52 137.103 298.3 136.738 299.411C136.635 299.711 136.537 300.037 136.443 300.384C136.378 300.616 136.317 300.86 136.261 301.105C136.228 301.229 136.2 301.354 136.172 301.482L136.088 301.872V301.933C136.032 302.198 135.976 302.473 135.924 302.752C135.873 303.03 135.812 303.352 135.76 303.656C135.723 303.854 135.69 304.051 135.662 304.248C135.597 304.63 135.541 305.016 135.484 305.398C135.452 305.621 135.419 305.826 135.391 306.062L135.279 306.92C135.517 307.623 135.784 308.318 136.06 309C136.236 309.373 136.339 309.773 136.364 310.179C142.105 311.683 148.191 311.683 153.932 310.179C153.93 310.165 153.93 310.15 153.932 310.136C153.845 309.751 153.808 309.358 153.819 308.966C153.914 307.865 154.07 306.77 154.287 305.685C154.356 305.15 154.386 304.611 154.376 304.072V303.879C154.362 303.717 154.357 303.562 154.353 303.408ZM154.353 303.408C154.353 303.236 154.353 303.065 154.32 302.893C154.287 302.722 154.292 302.572 154.268 302.409C154.245 302.246 154.226 302.083 154.203 301.92C154.18 301.757 154.147 301.594 154.114 301.431C154.081 301.268 154.049 301.105 154.011 300.942C154.011 300.886 153.988 300.835 153.974 300.779C153.922 300.565 153.866 300.35 153.805 300.131C153.745 299.913 153.707 299.784 153.651 299.613C153.651 299.535 153.604 299.458 153.576 299.385C153.548 299.312 153.497 299.137 153.454 299.012L153.37 298.772C153.333 298.665 153.295 298.558 153.253 298.45C153.183 298.257 153.108 298.069 153.033 297.876C152.959 297.683 152.879 297.494 152.799 297.305C152.64 296.919 152.467 296.538 152.294 296.156C151.616 294.672 150.853 293.21 150.151 291.761C149.774 291.001 149.44 290.223 149.15 289.432L149.061 289.548C148.919 289.745 148.792 289.951 148.682 290.165C148.682 293.54 144.996 297.67 144.996 297.67L141.286 292.717L138.039 297.293C137.571 297.52 137.103 298.3 136.738 299.411C136.635 299.711 136.537 300.037 136.443 300.384C136.378 300.616 136.317 300.86 136.261 301.105C136.228 301.229 136.2 301.354 136.172 301.482L136.088 301.872V301.933C136.032 302.198 135.976 302.473 135.924 302.752C135.873 303.03 135.812 303.352 135.76 303.656C135.723 303.854 135.69 304.051 135.662 304.248C135.597 304.63 135.541 305.016 135.484 305.398C135.452 305.621 135.419 305.826 135.391 306.062L135.279 306.92C135.517 307.623 135.784 308.318 136.06 309C136.236 309.373 136.339 309.773 136.364 310.179C142.105 311.683 148.191 311.683 153.932 310.179C153.93 310.165 153.93 310.15 153.932 310.136C153.845 309.751 153.808 309.358 153.819 308.966C153.914 307.865 154.07 306.77 154.287 305.685C154.356 305.15 154.386 304.611 154.376 304.072V303.879C154.362 303.717 154.357 303.562 154.353 303.408ZM154.353 303.408C154.353 303.236 154.353 303.065 154.32 302.893C154.287 302.722 154.292 302.572 154.268 302.409C154.245 302.246 154.226 302.083 154.203 301.92C154.18 301.757 154.147 301.594 154.114 301.431C154.081 301.268 154.049 301.105 154.011 300.942C154.011 300.886 153.988 300.835 153.974 300.779C153.922 300.565 153.866 300.35 153.805 300.131C153.745 299.913 153.707 299.784 153.651 299.613C153.651 299.535 153.604 299.458 153.576 299.385C153.548 299.312 153.497 299.137 153.454 299.012L153.37 298.772C153.333 298.665 153.295 298.558 153.253 298.45C153.183 298.257 153.108 298.069 153.033 297.876C152.959 297.683 152.879 297.494 152.799 297.305C152.64 296.919 152.467 296.538 152.294 296.156C151.616 294.672 150.853 293.21 150.151 291.761C149.774 291.001 149.44 290.223 149.15 289.432L149.061 289.548C148.919 289.745 148.792 289.951 148.682 290.165C148.682 293.54 144.996 297.67 144.996 297.67L141.286 292.717L138.039 297.293C137.571 297.52 137.103 298.3 136.738 299.411C136.635 299.711 136.537 300.037 136.443 300.384C136.378 300.616 136.317 300.86 136.261 301.105C136.228 301.229 136.2 301.354 136.172 301.482L136.088 301.872V301.933C136.032 302.198 135.976 302.473 135.924 302.752C135.873 303.03 135.812 303.352 135.76 303.656C135.723 303.854 135.69 304.051 135.662 304.248C135.597 304.63 135.541 305.016 135.484 305.398C135.452 305.621 135.419 305.826 135.391 306.062L135.279 306.92C135.517 307.623 135.784 308.318 136.06 309C136.236 309.373 136.339 309.773 136.364 310.179C142.105 311.683 148.191 311.683 153.932 310.179C153.93 310.165 153.93 310.15 153.932 310.136C153.845 309.751 153.808 309.358 153.819 308.966C153.914 307.865 154.07 306.77 154.287 305.685C154.356 305.15 154.386 304.611 154.376 304.072V303.879C154.362 303.717 154.357 303.562 154.353 303.408ZM159.312 295.358L157.642 289.247L157.356 288.201L157.277 287.914L156.87 286.421C156.871 286.409 156.871 286.396 156.87 286.383C156.879 286.317 156.868 286.25 156.837 286.19C156.776 286.078 156.622 285.963 156.262 285.933C156.124 285.924 155.987 285.924 155.85 285.933C155.443 285.969 155.041 286.038 154.647 286.138C154.456 286.186 154.25 286.237 154.03 286.301L153.628 286.417H153.59C152.513 286.741 151.512 287.251 150.643 287.918C150.068 288.357 149.564 288.868 149.146 289.436L149.057 289.552C148.914 289.749 148.788 289.956 148.678 290.17C148.678 293.544 144.991 297.674 144.991 297.674L141.281 292.721L141.071 292.442L141.033 292.395L140.495 291.67L140.088 291.173L139.98 291.044L138.062 288.699L137.454 287.94V287.914L137.243 287.652L136.841 287.163L135.438 287.914L131.929 289.788L130.31 299.441V299.544L130.357 300.247L130.703 305.621V305.925L130.174 307.859C131.587 308.558 133.058 309.154 134.572 309.643L134.97 309.772C135.438 309.913 135.877 310.042 136.336 310.166C136.353 310.23 136.365 310.294 136.373 310.359C136.373 310.299 136.373 310.235 136.373 310.175C142.114 311.679 148.2 311.679 153.941 310.175L154.049 310.145C154.315 310.076 154.587 310.003 154.849 309.922L155.274 309.797C156.429 309.444 157.56 309.028 158.662 308.554L159.05 300.886L159.331 295.41L159.312 295.358ZM136.303 310.166C136.32 310.23 136.333 310.294 136.341 310.359C136.341 310.299 136.341 310.235 136.341 310.175L136.303 310.166ZM154.353 303.408C154.353 303.236 154.353 303.065 154.32 302.893C154.287 302.722 154.292 302.572 154.268 302.409C154.245 302.246 154.226 302.083 154.203 301.92C154.18 301.757 154.147 301.594 154.114 301.431C154.081 301.268 154.049 301.105 154.011 300.942C154.011 300.886 153.988 300.835 153.974 300.779C153.922 300.565 153.866 300.35 153.805 300.131C153.745 299.913 153.707 299.784 153.651 299.613C153.651 299.535 153.604 299.458 153.576 299.385C153.548 299.312 153.497 299.137 153.454 299.012L153.37 298.772C153.333 298.665 153.295 298.558 153.253 298.45C153.183 298.257 153.108 298.069 153.033 297.876C152.959 297.683 152.879 297.494 152.799 297.305C152.64 296.919 152.467 296.538 152.294 296.156C151.616 294.672 150.853 293.21 150.151 291.761C149.774 291.001 149.44 290.223 149.15 289.432L149.061 289.548C148.919 289.745 148.792 289.951 148.682 290.165C148.682 293.54 144.996 297.67 144.996 297.67L141.286 292.717L138.039 297.293C137.571 297.52 137.103 298.3 136.738 299.411C136.635 299.711 136.537 300.037 136.443 300.384C136.378 300.616 136.317 300.86 136.261 301.105C136.228 301.229 136.2 301.354 136.172 301.482L136.088 301.872V301.933C136.032 302.198 135.976 302.473 135.924 302.752C135.873 303.03 135.812 303.352 135.76 303.656C135.723 303.854 135.69 304.051 135.662 304.248C135.597 304.63 135.541 305.016 135.484 305.398C135.452 305.621 135.419 305.826 135.391 306.062L135.279 306.92C135.517 307.623 135.784 308.318 136.06 309C136.236 309.373 136.339 309.773 136.364 310.179C142.105 311.683 148.191 311.683 153.932 310.179C153.93 310.165 153.93 310.15 153.932 310.136C153.845 309.751 153.808 309.358 153.819 308.966C153.914 307.865 154.07 306.77 154.287 305.685C154.356 305.15 154.386 304.611 154.376 304.072V303.879C154.362 303.717 154.357 303.562 154.353 303.408ZM154.353 303.408C154.353 303.236 154.353 303.065 154.32 302.893C154.287 302.722 154.292 302.572 154.268 302.409C154.245 302.246 154.226 302.083 154.203 301.92C154.18 301.757 154.147 301.594 154.114 301.431C154.081 301.268 154.049 301.105 154.011 300.942C154.011 300.886 153.988 300.835 153.974 300.779C153.922 300.565 153.866 300.35 153.805 300.131C153.745 299.913 153.707 299.784 153.651 299.613C153.651 299.535 153.604 299.458 153.576 299.385C153.548 299.312 153.497 299.137 153.454 299.012L153.37 298.772C153.333 298.665 153.295 298.558 153.253 298.45C153.183 298.257 153.108 298.069 153.033 297.876C152.959 297.683 152.879 297.494 152.799 297.305C152.64 296.919 152.467 296.538 152.294 296.156C151.616 294.672 150.853 293.21 150.151 291.761C149.774 291.001 149.44 290.223 149.15 289.432L149.061 289.548C148.919 289.745 148.792 289.951 148.682 290.165C148.682 293.54 144.996 297.67 144.996 297.67L141.286 292.717L138.039 297.293C137.571 297.52 137.103 298.3 136.738 299.411C136.635 299.711 136.537 300.037 136.443 300.384C136.378 300.616 136.317 300.86 136.261 301.105C136.228 301.229 136.2 301.354 136.172 301.482L136.088 301.872V301.933C136.032 302.198 135.976 302.473 135.924 302.752C135.873 303.03 135.812 303.352 135.76 303.656C135.723 303.854 135.69 304.051 135.662 304.248C135.597 304.63 135.541 305.016 135.484 305.398C135.452 305.621 135.419 305.826 135.391 306.062L135.279 306.92C135.517 307.623 135.784 308.318 136.06 309C136.236 309.373 136.339 309.773 136.364 310.179C142.105 311.683 148.191 311.683 153.932 310.179C153.93 310.165 153.93 310.15 153.932 310.136C153.845 309.751 153.808 309.358 153.819 308.966C153.914 307.865 154.07 306.77 154.287 305.685C154.356 305.15 154.386 304.611 154.376 304.072V303.879C154.362 303.717 154.357 303.562 154.353 303.408ZM154.353 303.408C154.353 303.236 154.353 303.065 154.32 302.893C154.287 302.722 154.292 302.572 154.268 302.409C154.245 302.246 154.226 302.083 154.203 301.92C154.18 301.757 154.147 301.594 154.114 301.431C154.081 301.268 154.049 301.105 154.011 300.942C154.011 300.886 153.988 300.835 153.974 300.779C153.922 300.565 153.866 300.35 153.805 300.131C153.745 299.913 153.707 299.784 153.651 299.613C153.651 299.535 153.604 299.458 153.576 299.385C153.548 299.312 153.497 299.137 153.454 299.012L153.37 298.772C153.333 298.665 153.295 298.558 153.253 298.45C153.183 298.257 153.108 298.069 153.033 297.876C152.959 297.683 152.879 297.494 152.799 297.305C152.64 296.919 152.467 296.538 152.294 296.156C151.616 294.672 150.853 293.21 150.151 291.761C149.774 291.001 149.44 290.223 149.15 289.432L149.061 289.548C148.919 289.745 148.792 289.951 148.682 290.165C148.682 293.54 144.996 297.67 144.996 297.67L141.286 292.717L138.039 297.293C137.571 297.52 137.103 298.3 136.738 299.411C136.635 299.711 136.537 300.037 136.443 300.384C136.378 300.616 136.317 300.86 136.261 301.105C136.228 301.229 136.2 301.354 136.172 301.482L136.088 301.872V301.933C136.032 302.198 135.976 302.473 135.924 302.752C135.873 303.03 135.812 303.352 135.76 303.656C135.723 303.854 135.69 304.051 135.662 304.248C135.597 304.63 135.541 305.016 135.484 305.398C135.452 305.621 135.419 305.826 135.391 306.062L135.279 306.92C135.517 307.623 135.784 308.318 136.06 309C136.236 309.373 136.339 309.773 136.364 310.179C142.105 311.683 148.191 311.683 153.932 310.179C153.93 310.165 153.93 310.15 153.932 310.136C153.845 309.751 153.808 309.358 153.819 308.966C153.914 307.865 154.07 306.77 154.287 305.685C154.356 305.15 154.386 304.611 154.376 304.072V303.879C154.362 303.717 154.357 303.562 154.353 303.408ZM154.353 303.408C154.353 303.236 154.353 303.065 154.32 302.893C154.287 302.722 154.292 302.572 154.268 302.409C154.245 302.246 154.226 302.083 154.203 301.92C154.18 301.757 154.147 301.594 154.114 301.431C154.081 301.268 154.049 301.105 154.011 300.942C154.011 300.886 153.988 300.835 153.974 300.779C153.922 300.565 153.866 300.35 153.805 300.131C153.745 299.913 153.707 299.784 153.651 299.613C153.651 299.535 153.604 299.458 153.576 299.385C153.548 299.312 153.497 299.137 153.454 299.012L153.37 298.772C153.333 298.665 153.295 298.558 153.253 298.45C153.183 298.257 153.108 298.069 153.033 297.876C152.959 297.683 152.879 297.494 152.799 297.305C152.64 296.919 152.467 296.538 152.294 296.156C151.616 294.672 150.853 293.21 150.151 291.761C149.774 291.001 149.44 290.223 149.15 289.432L149.061 289.548C148.919 289.745 148.792 289.951 148.682 290.165C148.682 293.54 144.996 297.67 144.996 297.67L141.286 292.717L138.039 297.293C137.571 297.52 137.103 298.3 136.738 299.411C136.635 299.711 136.537 300.037 136.443 300.384C136.378 300.616 136.317 300.86 136.261 301.105C136.228 301.229 136.2 301.354 136.172 301.482L136.088 301.872V301.933C136.032 302.198 135.976 302.473 135.924 302.752C135.873 303.03 135.812 303.352 135.76 303.656C135.723 303.854 135.69 304.051 135.662 304.248C135.597 304.63 135.541 305.016 135.484 305.398C135.452 305.621 135.419 305.826 135.391 306.062L135.279 306.92C135.517 307.623 135.784 308.318 136.06 309C136.236 309.373 136.339 309.773 136.364 310.179C142.105 311.683 148.191 311.683 153.932 310.179C153.93 310.165 153.93 310.15 153.932 310.136C153.845 309.751 153.808 309.358 153.819 308.966C153.914 307.865 154.07 306.77 154.287 305.685C154.356 305.15 154.386 304.611 154.376 304.072V303.879C154.362 303.717 154.357 303.562 154.353 303.408ZM154.353 303.408C154.353 303.236 154.353 303.065 154.32 302.893C154.287 302.722 154.292 302.572 154.268 302.409C154.245 302.246 154.226 302.083 154.203 301.92C154.18 301.757 154.147 301.594 154.114 301.431C154.081 301.268 154.049 301.105 154.011 300.942C154.011 300.886 153.988 300.835 153.974 300.779C153.922 300.565 153.866 300.35 153.805 300.131C153.745 299.913 153.707 299.784 153.651 299.613C153.651 299.535 153.604 299.458 153.576 299.385C153.548 299.312 153.497 299.137 153.454 299.012L153.37 298.772C153.333 298.665 153.295 298.558 153.253 298.45C153.183 298.257 153.108 298.069 153.033 297.876C152.959 297.683 152.879 297.494 152.799 297.305C152.64 296.919 152.467 296.538 152.294 296.156C151.616 294.672 150.853 293.21 150.151 291.761C149.774 291.001 149.44 290.223 149.15 289.432L149.061 289.548C148.919 289.745 148.792 289.951 148.682 290.165C148.682 293.54 144.996 297.67 144.996 297.67L141.286 292.717L138.039 297.293C137.571 297.52 137.103 298.3 136.738 299.411C136.635 299.711 136.537 300.037 136.443 300.384C136.378 300.616 136.317 300.86 136.261 301.105C136.228 301.229 136.2 301.354 136.172 301.482L136.088 301.872V301.933C136.032 302.198 135.976 302.473 135.924 302.752C135.873 303.03 135.812 303.352 135.76 303.656C135.723 303.854 135.69 304.051 135.662 304.248C135.597 304.63 135.541 305.016 135.484 305.398C135.452 305.621 135.419 305.826 135.391 306.062L135.279 306.92C135.517 307.623 135.784 308.318 136.06 309C136.236 309.373 136.339 309.773 136.364 310.179C142.105 311.683 148.191 311.683 153.932 310.179C153.93 310.165 153.93 310.15 153.932 310.136C153.845 309.751 153.808 309.358 153.819 308.966C153.914 307.865 154.07 306.77 154.287 305.685C154.356 305.15 154.386 304.611 154.376 304.072V303.879C154.362 303.717 154.357 303.562 154.353 303.408ZM154.353 303.408C154.353 303.236 154.353 303.065 154.32 302.893C154.287 302.722 154.292 302.572 154.268 302.409C154.245 302.246 154.226 302.083 154.203 301.92C154.18 301.757 154.147 301.594 154.114 301.431C154.081 301.268 154.049 301.105 154.011 300.942C154.011 300.886 153.988 300.835 153.974 300.779C153.922 300.565 153.866 300.35 153.805 300.131C153.745 299.913 153.707 299.784 153.651 299.613C153.651 299.535 153.604 299.458 153.576 299.385C153.548 299.312 153.497 299.137 153.454 299.012L153.37 298.772C153.333 298.665 153.295 298.558 153.253 298.45C153.183 298.257 153.108 298.069 153.033 297.876C152.959 297.683 152.879 297.494 152.799 297.305C152.64 296.919 152.467 296.538 152.294 296.156C151.616 294.672 150.853 293.21 150.151 291.761C149.774 291.001 149.44 290.223 149.15 289.432L149.061 289.548C148.919 289.745 148.792 289.951 148.682 290.165C148.682 293.54 144.996 297.67 144.996 297.67L141.286 292.717L138.039 297.293C137.571 297.52 137.103 298.3 136.738 299.411C136.635 299.711 136.537 300.037 136.443 300.384C136.378 300.616 136.317 300.86 136.261 301.105C136.228 301.229 136.2 301.354 136.172 301.482L136.088 301.872V301.933C136.032 302.198 135.976 302.473 135.924 302.752C135.873 303.03 135.812 303.352 135.76 303.656C135.723 303.854 135.69 304.051 135.662 304.248C135.597 304.63 135.541 305.016 135.484 305.398C135.452 305.621 135.419 305.826 135.391 306.062L135.279 306.92C135.517 307.623 135.784 308.318 136.06 309C136.236 309.373 136.339 309.773 136.364 310.179C142.105 311.683 148.191 311.683 153.932 310.179C153.93 310.165 153.93 310.15 153.932 310.136C153.845 309.751 153.808 309.358 153.819 308.966C153.914 307.865 154.07 306.77 154.287 305.685C154.356 305.15 154.386 304.611 154.376 304.072V303.879C154.362 303.717 154.357 303.562 154.353 303.408ZM154.353 303.408C154.353 303.236 154.353 303.065 154.32 302.893C154.287 302.722 154.292 302.572 154.268 302.409C154.245 302.246 154.226 302.083 154.203 301.92C154.18 301.757 154.147 301.594 154.114 301.431C154.081 301.268 154.049 301.105 154.011 300.942C154.011 300.886 153.988 300.835 153.974 300.779C153.922 300.565 153.866 300.35 153.805 300.131C153.745 299.913 153.707 299.784 153.651 299.613C153.651 299.535 153.604 299.458 153.576 299.385C153.548 299.312 153.497 299.137 153.454 299.012L153.37 298.772C153.333 298.665 153.295 298.558 153.253 298.45C153.183 298.257 153.108 298.069 153.033 297.876C152.959 297.683 152.879 297.494 152.799 297.305C152.64 296.919 152.467 296.538 152.294 296.156C151.616 294.672 150.853 293.21 150.151 291.761C149.774 291.001 149.44 290.223 149.15 289.432L149.061 289.548C148.919 289.745 148.792 289.951 148.682 290.165C148.682 293.54 144.996 297.67 144.996 297.67L141.286 292.717L138.039 297.293C137.571 297.52 137.103 298.3 136.738 299.411C136.635 299.711 136.537 300.037 136.443 300.384C136.378 300.616 136.317 300.86 136.261 301.105C136.228 301.229 136.2 301.354 136.172 301.482L136.088 301.872V301.933C136.032 302.198 135.976 302.473 135.924 302.752C135.873 303.03 135.812 303.352 135.76 303.656C135.723 303.854 135.69 304.051 135.662 304.248C135.597 304.63 135.541 305.016 135.484 305.398C135.452 305.621 135.419 305.826 135.391 306.062L135.279 306.92C135.517 307.623 135.784 308.318 136.06 309C136.236 309.373 136.339 309.773 136.364 310.179C142.105 311.683 148.191 311.683 153.932 310.179C153.93 310.165 153.93 310.15 153.932 310.136C153.845 309.751 153.808 309.358 153.819 308.966C153.914 307.865 154.07 306.77 154.287 305.685C154.356 305.15 154.386 304.611 154.376 304.072V303.879C154.362 303.717 154.357 303.562 154.353 303.408ZM154.353 303.408C154.353 303.236 154.353 303.065 154.32 302.893C154.287 302.722 154.292 302.572 154.268 302.409C154.245 302.246 154.226 302.083 154.203 301.92C154.18 301.757 154.147 301.594 154.114 301.431C154.081 301.268 154.049 301.105 154.011 300.942C154.011 300.886 153.988 300.835 153.974 300.779C153.922 300.565 153.866 300.35 153.805 300.131C153.745 299.913 153.707 299.784 153.651 299.613C153.651 299.535 153.604 299.458 153.576 299.385C153.548 299.312 153.497 299.137 153.454 299.012L153.37 298.772C153.333 298.665 153.295 298.558 153.253 298.45C153.183 298.257 153.108 298.069 153.033 297.876C152.959 297.683 152.879 297.494 152.799 297.305C152.64 296.919 152.467 296.538 152.294 296.156C151.616 294.672 150.853 293.21 150.151 291.761C149.774 291.001 149.44 290.223 149.15 289.432L149.061 289.548C148.919 289.745 148.792 289.951 148.682 290.165C148.682 293.54 144.996 297.67 144.996 297.67L141.286 292.717L138.039 297.293C137.571 297.52 137.103 298.3 136.738 299.411C136.635 299.711 136.537 300.037 136.443 300.384C136.378 300.616 136.317 300.86 136.261 301.105C136.228 301.229 136.2 301.354 136.172 301.482L136.088 301.872V301.933C136.032 302.198 135.976 302.473 135.924 302.752C135.873 303.03 135.812 303.352 135.76 303.656C135.723 303.854 135.69 304.051 135.662 304.248C135.597 304.63 135.541 305.016 135.484 305.398C135.452 305.621 135.419 305.826 135.391 306.062L135.279 306.92C135.517 307.623 135.784 308.318 136.06 309C136.236 309.373 136.339 309.773 136.364 310.179C142.105 311.683 148.191 311.683 153.932 310.179C153.93 310.165 153.93 310.15 153.932 310.136C153.845 309.751 153.808 309.358 153.819 308.966C153.914 307.865 154.07 306.77 154.287 305.685C154.356 305.15 154.386 304.611 154.376 304.072V303.879C154.362 303.717 154.357 303.562 154.353 303.408Z" fill="#444176"/>
<path opacity="0.1" d="M141.351 292.43L141.038 292.391C140.564 292.332 140.096 292.246 139.634 292.134L139.461 292.091C138.319 291.795 137.07 291.263 136.79 290.328C136.706 290.027 136.716 289.711 136.818 289.415C136.975 288.905 137.188 288.41 137.454 287.94V287.914C137.489 287.848 137.528 287.783 137.571 287.721C137.957 287.029 138.541 286.447 139.26 286.036L138.698 286.117L133.945 286.825L126.576 287.914C126.576 287.914 125.266 287.674 123.484 292.176C123.484 292.232 123.442 292.284 123.423 292.344C122.993 293.446 122.539 294.822 122.071 296.542C121.748 297.734 121.454 298.905 121.182 300.041C121.103 300.384 121.023 300.723 120.948 301.058C121.792 301.969 122.7 302.829 123.666 303.631L123.821 303.764C125.714 305.335 127.806 306.693 130.053 307.808L130.141 307.85C131.555 308.549 133.025 309.146 134.539 309.634L134.937 309.763C135.021 308.97 135.115 308.091 135.227 307.19C135.227 307.1 135.227 307.01 135.264 306.92L135.377 306.062C135.405 305.844 135.438 305.633 135.47 305.398C135.526 305.016 135.583 304.63 135.648 304.248C135.676 304.051 135.709 303.854 135.746 303.656C135.798 303.352 135.854 303.048 135.91 302.752C135.966 302.456 136.018 302.198 136.074 301.933V301.872L136.158 301.482C136.186 301.354 136.214 301.229 136.247 301.105C136.303 300.86 136.364 300.616 136.429 300.384C136.523 300.037 136.621 299.711 136.724 299.411C137.098 298.3 137.533 297.52 138.025 297.293L141.272 292.717L141.407 292.524L141.468 292.438L141.351 292.43Z" fill="black"/>
<path opacity="0.1" d="M142.132 269.598C143.592 269.371 145.061 268.882 146.511 269.169C147.728 269.401 148.743 270.143 149.856 270.657C150.932 271.153 152.107 271.438 153.309 271.494C153.748 271.546 154.193 271.467 154.577 271.266C155.157 270.897 155.241 270.143 155.143 269.499C154.862 267.673 153.618 266.103 152.336 264.679C151.824 264.071 151.234 263.522 150.577 263.045C148.897 261.909 146.675 261.716 144.593 261.802C142.217 261.9 139.802 262.321 137.739 263.414C136.336 264.152 133.117 266.476 134.235 268.157C135.409 269.915 140.294 269.885 142.132 269.598Z" fill="black"/>
<path opacity="0.5" d="M142.132 269.169C143.592 268.942 145.061 268.453 146.511 268.74C147.728 268.972 148.743 269.714 149.856 270.228C150.932 270.724 152.107 271.009 153.309 271.065C153.748 271.117 154.193 271.038 154.577 270.837C155.157 270.469 155.241 269.714 155.143 269.071C154.862 267.244 153.618 265.674 152.336 264.25C151.824 263.642 151.234 263.094 150.577 262.617C148.897 261.48 146.675 261.287 144.593 261.373C142.217 261.472 139.802 261.892 137.739 262.985C136.336 263.723 133.117 266.047 134.235 267.728C135.409 269.487 140.294 269.457 142.132 269.169Z" fill="#444176"/>
</g>
<path d="M270.608 248.169H270.678C270.781 251.042 271.225 253.641 272.081 254.361C274.121 256.077 282.58 252.646 282 250.571C281.883 250.142 281.686 249.438 281.438 248.551C283.722 248.289 285.672 247.693 286.449 246.467L287.918 250.618L288.021 250.914H288.049H288.133C289.102 259.327 291.296 276.798 293.05 279.14C295.39 282.24 298.08 295.676 298.08 295.676L303.109 323.237C303.109 323.237 305.046 339.104 306.206 340.82C306.544 341.147 306.992 341.36 307.479 341.424C306.8 343.286 305.827 345.46 304.672 346.673C302.332 349.083 299.254 353.908 296.545 353.565C293.836 353.222 293.064 358.389 298.094 359.075C300.877 359.457 305.317 358.994 308.728 358.505C308.728 359.886 309.776 361.473 312.41 361.833C317.439 362.523 327.886 360.456 327.886 360.456C327.886 360.456 336.775 357.025 337.173 354.598C337.454 352.84 336.092 345.781 335.334 342.08C336.738 340.018 335.241 322.217 335.241 322.217L332.532 288.111C332.532 288.111 334.081 269.165 332.532 265.717C331.564 263.573 331.203 253.71 331.068 246.655L332.939 246.767C333.045 246.649 333.142 246.524 333.229 246.394L333.697 246.424C333.697 246.424 336.036 244.014 334.085 240.223C332.649 237.405 332.92 224.686 333.15 218.352L333.426 215.35C333.528 215.259 333.607 215.147 333.655 215.024C337.284 214.575 340.811 213.596 344.102 212.125C345.095 211.747 346.019 211.232 346.844 210.598C348.78 208.883 347.615 198.54 343.746 183.037C339.877 167.534 336.396 168.911 336.396 168.911C336.396 168.911 327.11 168.221 322.852 163.053C318.595 157.886 315.736 157.954 315.736 157.954C315.629 157.277 315.554 156.638 315.502 156.042C315.502 155.819 315.465 155.613 315.451 155.39C316.898 154.156 318.002 152.622 318.67 150.917C319.54 150.488 320.611 150.347 321.444 149.806C321.656 149.665 321.85 149.501 322.02 149.317C322.854 148.612 323.384 147.654 323.512 146.62C323.645 145.491 323.586 144.349 323.339 143.236C323.044 141.59 322.609 139.904 321.561 138.609C320.513 137.314 318.946 136.534 317.435 135.809C313.343 133.839 309.239 131.889 305.126 129.96C304.322 129.509 303.425 129.217 302.492 129.102C300.845 129.016 299.366 130.05 298.038 131.032C297.507 131.414 297 131.822 296.517 132.254C296.107 132.588 295.732 132.957 295.399 133.356C293.846 135.264 293.186 138.858 293.869 141.242C294.084 141.997 294.547 142.216 295.118 142.207C294.271 143.751 293.831 145.454 293.832 147.182C293.841 149.073 294.369 150.932 295.367 152.587C296.365 154.243 297.802 155.642 299.544 156.655C299.544 156.895 299.544 157.131 299.568 157.358C299.587 158.238 299.555 159.118 299.474 159.996C299.474 159.996 289.181 165.094 288.026 167.504C286.87 169.915 282.608 171.638 282.608 171.638C282.608 171.638 274.482 175.429 274.482 188.865L270.224 207.811L269.452 243.984C269.452 243.984 269.985 243.555 270.856 242.946C270.828 243.186 270.804 243.435 270.781 243.688C270.665 245.07 270.626 246.457 270.664 247.843L270.608 248.169ZM322.586 341.789C322.427 342.342 322.193 343.075 321.898 343.933C321.767 343.221 321.636 342.518 321.505 341.849C321.842 341.819 322.202 341.802 322.586 341.789Z" fill="url(#paint2_linear)"/>
<path d="M308.532 337.346C308.532 337.346 307.039 343.496 304.789 345.884C302.538 348.273 299.591 353.059 296.99 352.716C294.389 352.373 293.635 357.497 298.482 358.179C303.329 358.861 313.364 356.815 313.364 356.815C313.364 356.815 321.935 353.385 322.305 351.009C322.675 348.633 320.069 336.321 320.069 336.321L308.532 337.346Z" fill="#53526B"/>
<path opacity="0.05" d="M308.532 337.346C308.532 337.346 307.039 343.496 304.789 345.884C302.538 348.273 299.591 353.059 296.99 352.716C294.389 352.373 293.635 357.497 298.482 358.179C303.329 358.861 313.364 356.815 313.364 356.815C313.364 356.815 321.935 353.385 322.305 351.009C322.675 348.633 320.069 336.321 320.069 336.321L308.532 337.346Z" fill="black"/>
<path d="M322.319 340.078C322.319 340.078 320.826 346.227 318.576 348.616C316.326 351.005 313.364 355.79 310.768 355.447C308.171 355.104 307.413 360.229 312.26 360.911C317.107 361.593 327.166 359.543 327.166 359.543C327.166 359.543 335.737 356.112 336.106 353.736C336.476 351.361 333.87 339.049 333.87 339.049L322.319 340.078Z" fill="#53526B"/>
<path d="M288.41 246.501C288.41 246.501 291.39 275.872 293.626 278.947C295.862 282.022 298.468 295.341 298.468 295.341L303.311 322.663C303.311 322.663 305.182 338.375 306.291 340.082C307.4 341.789 321.229 341.055 321.229 341.055L312.63 250.596L288.41 246.501Z" fill="#5F5D7E"/>
<path opacity="0.05" d="M288.41 246.501C288.41 246.501 291.39 275.872 293.626 278.947C295.862 282.022 298.468 295.341 298.468 295.341L303.311 322.663C303.311 322.663 305.182 338.375 306.291 340.082C307.4 341.789 321.229 341.055 321.229 341.055L312.63 250.596L288.41 246.501Z" fill="black"/>
<path d="M282.449 232.491L283.422 235.325L288.686 250.639L288.789 250.931H288.817C289.523 251.077 304.438 254.22 307.657 255.185C307.831 255.234 308.001 255.293 308.167 255.361C309.659 256.042 311.521 280.632 311.521 280.632C311.521 280.632 312.639 303.858 313.393 305.565C314.146 307.272 317.135 342.445 318.983 341.424C320.831 340.404 334.259 341.424 334.259 341.424C335.751 340.056 334.259 321.616 334.259 321.616L331.611 287.811C331.611 287.811 333.103 269.028 331.611 265.61C330.118 262.192 330.118 239.313 330.118 239.313L299.619 234.944L296.672 234.515L282.449 232.491Z" fill="#5F5D7E"/>
<path opacity="0.02" d="M283.422 235.33L288.686 250.643L288.812 250.944C289.518 251.089 304.433 254.233 307.652 255.198H307.975L299.643 234.948L299.404 234.365L296.695 234.523L283.422 235.33Z" fill="black"/>
<path opacity="0.1" d="M318.221 164.19C318.221 164.19 304.433 177.852 295.862 166.578L287.665 171.703L289.158 179.559L284.311 238.983C284.311 238.983 296.98 238.64 305.921 241.372C308.411 242.182 311.102 242.322 313.676 241.778C316.25 241.233 318.601 240.025 320.452 238.297L318.979 186.047L322.333 169.996L318.221 164.19Z" fill="black"/>
<path d="M318.221 163.165C318.221 163.165 304.433 176.827 295.862 165.553L287.665 170.678L289.158 178.534L284.311 237.958C284.311 237.958 296.98 237.615 305.921 240.347C308.411 241.157 311.102 241.297 313.676 240.753C316.25 240.208 318.601 239 320.452 237.272L318.979 185.023L322.333 168.971L318.221 163.165Z" fill="#53526B"/>
<path d="M290.697 224.008V226.161H289.949V224.729H287.212V226.161H286.458V224.013L290.697 224.008Z" fill="#E82127"/>
<path d="M290.028 223.313H287.137C286.948 223.272 286.774 223.184 286.636 223.058C286.497 222.933 286.399 222.775 286.351 222.602H290.81C290.762 222.775 290.663 222.932 290.524 223.058C290.386 223.183 290.213 223.271 290.024 223.313" fill="#E82127"/>
<path d="M316.172 222.627C316.123 222.798 316.024 222.954 315.887 223.078C315.749 223.203 315.578 223.291 315.391 223.334H314.174L314.113 223.356V226.169H313.365V223.356L313.295 223.334H312.078C311.891 223.29 311.721 223.201 311.584 223.077C311.447 222.953 311.348 222.797 311.297 222.627H316.172Z" fill="#E82127"/>
<path d="M289.528 233.863C289.528 233.863 289.528 242.744 287.291 246.501C285.055 250.258 272.016 248.216 272.016 248.216L274.622 235.578L289.528 233.863Z" fill="#D6DBE6"/>
<path d="M273.434 254.361C275.399 256.077 283.544 252.646 282.982 250.605C282.589 249.16 281.214 243.988 280.433 241.055L279.89 238.992C279.89 238.992 275.118 237.624 273.434 238.992C272.821 239.489 272.39 241.449 272.189 243.816C271.843 247.929 272.194 253.272 273.434 254.361Z" fill="#FDC2CC"/>
<path d="M291.375 169.31L304.414 178.53C304.414 178.53 323.788 177.505 318.946 168.967C316.837 165.212 315.565 161.11 315.203 156.899C315.045 155.346 315.045 153.783 315.203 152.229C315.203 152.229 297.317 137.22 299.553 154.279C299.73 155.588 299.833 156.905 299.862 158.224C300.129 171.03 291.375 169.31 291.375 169.31Z" fill="#FDC2CC"/>
<path opacity="0.1" d="M299.591 154.283C299.767 155.593 299.87 156.91 299.9 158.229C301.907 159.447 304.262 160.095 306.67 160.09C310.005 160.09 312.462 157.114 314.679 155.137C314.431 152.302 315.236 152.233 315.236 152.233C315.236 152.233 297.355 137.207 299.591 154.283Z" fill="black"/>
<path d="M306.67 159.408C313.46 159.408 318.965 154.362 318.965 148.138C318.965 141.914 313.46 136.868 306.67 136.868C299.879 136.868 294.375 141.914 294.375 148.138C294.375 154.362 299.879 159.408 306.67 159.408Z" fill="#FDC2CC"/>
<path opacity="0.1" d="M315.423 158.893C315.423 158.893 317.472 159.065 321.57 164.185C325.669 169.306 334.609 169.992 334.609 169.992C334.609 169.992 337.964 168.624 341.688 183.993C345.412 199.363 346.53 209.608 344.668 211.315C342.806 213.021 335.353 215.419 331.61 215.419C331.61 215.419 330.492 236.933 332.354 240.69C334.216 244.447 331.98 246.84 331.98 246.84L315.605 245.815C315.605 245.815 310.014 239.326 308.896 228.056C307.778 216.787 304.054 184.679 305.916 180.923C307.778 177.166 315.975 167.603 315.605 166.578C315.236 165.553 315.423 158.893 315.423 158.893Z" fill="black"/>
<path d="M315.465 158.79C315.465 158.79 318.221 158.722 322.319 163.846C326.417 168.971 335.353 169.653 335.353 169.653C335.353 169.653 338.708 168.285 342.432 183.655C346.156 199.024 347.274 209.269 345.412 210.976C343.55 212.683 336.097 215.076 332.373 215.076C332.373 215.076 331.255 236.59 333.117 240.347C334.979 244.104 332.743 246.497 332.743 246.497L316.368 245.472C316.368 245.472 310.777 238.983 309.659 227.713C308.541 216.444 304.808 184.341 306.67 180.601C308.532 176.862 316.728 167.281 316.359 166.257C315.989 165.232 315.465 158.79 315.465 158.79Z" fill="#D6DBE6"/>
<path opacity="0.1" d="M272.194 243.812C273.976 242.564 277.34 240.621 280.437 241.05L279.895 238.988C279.895 238.988 275.123 237.62 273.438 238.988C272.816 239.485 272.39 241.441 272.194 243.812Z" fill="black"/>
<path opacity="0.1" d="M299.797 160.943C299.797 160.943 290.295 166.578 289.177 168.971C288.059 171.364 283.96 173.071 283.96 173.071C283.96 173.071 276.138 176.827 276.138 190.147L272.04 208.93L290.669 232.838C290.669 232.838 292.906 208.93 294.024 203.124C295.142 197.317 296.63 186.399 296.63 186.399C296.63 186.399 302.22 179.911 301.472 178.204C300.723 176.497 299.797 160.943 299.797 160.943Z" fill="black"/>
<path d="M299.797 160.84C299.797 160.84 289.888 165.896 288.774 168.285C287.661 170.674 283.558 172.385 283.558 172.385C283.558 172.385 275.735 176.141 275.735 189.461L271.637 208.244L270.893 244.104C270.893 244.104 277.602 238.297 282.444 241.029C287.286 243.761 290.267 232.148 290.267 232.148C290.267 232.148 292.503 208.24 293.621 202.433C294.739 196.627 296.227 185.709 296.227 185.709C296.227 185.709 301.818 179.22 301.069 177.514C300.321 175.807 299.797 160.84 299.797 160.84Z" fill="#D6DBE6"/>
<path opacity="0.1" d="M295.876 134.428C296.507 133.692 297.237 133.033 298.047 132.464C299.329 131.486 300.747 130.466 302.337 130.551C303.237 130.661 304.102 130.945 304.873 131.383C308.834 133.296 312.784 135.229 316.724 137.181C318.179 137.902 319.68 138.665 320.696 139.96C321.711 141.255 322.123 142.919 322.408 144.549C322.647 145.653 322.704 146.783 322.576 147.902C322.46 149 321.879 150.011 320.958 150.72C319.896 151.427 318.441 151.432 317.552 152.358C317.037 152.894 316.813 153.644 316.448 154.296C316.083 154.948 315.451 155.583 314.731 155.467C314.01 155.351 313.575 154.652 313.472 153.945C313.426 153.227 313.472 152.508 313.608 151.8C313.748 150.514 313.57 149.15 312.756 148.194C312.195 147.542 311.39 147.147 310.847 146.478C309.547 144.866 310.141 142.19 308.714 140.676C308.3 140.281 307.778 139.993 307.203 139.842C306.628 139.691 306.019 139.683 305.439 139.819C304.284 140.042 303.226 140.616 302.164 141.105C300.73 141.769 299.227 142.3 297.678 142.692C296.377 143.018 294.871 143.798 294.426 142.212C293.748 139.883 294.379 136.319 295.876 134.428Z" fill="black"/>
<path d="M296.25 134.089C296.881 133.354 297.611 132.694 298.421 132.125C299.703 131.148 301.121 130.127 302.711 130.213C303.611 130.322 304.476 130.606 305.247 131.045C309.205 132.957 312.494 131.148 317.098 136.842C318.08 138.06 320.055 138.326 321.07 139.621C322.085 140.916 322.497 142.58 322.782 144.21C323.021 145.314 323.078 146.444 322.951 147.563C322.835 148.661 322.253 149.672 321.332 150.381C320.27 151.089 318.815 151.093 317.926 152.019C317.411 152.555 317.187 153.306 316.822 153.957C316.457 154.609 315.825 155.244 315.105 155.128C314.384 155.012 313.949 154.313 313.846 153.606C313.8 152.889 313.846 152.169 313.982 151.462C314.122 150.175 313.944 148.811 313.13 147.855C312.569 147.203 311.764 146.809 311.222 146.14C309.921 144.527 310.515 141.851 309.088 140.338C308.674 139.942 308.152 139.654 307.577 139.503C307.002 139.353 306.393 139.345 305.813 139.48C304.658 139.703 303.6 140.277 302.538 140.766C301.104 141.43 299.601 141.961 298.052 142.353C296.751 142.679 295.245 143.459 294.8 141.873C294.117 139.544 294.753 135.976 296.25 134.089Z" fill="#865A61"/>
<path opacity="0.1" d="M329.833 186.215C329.833 186.215 334.801 197.828 331.073 202.609L322.876 200.894C322.876 200.894 330.329 202.944 329.211 198.844C328.092 194.744 329.833 186.215 329.833 186.215Z" fill="black"/>
<path opacity="0.1" d="M332.546 214.908C332.546 214.908 321.739 215.59 318.759 213.54C322.683 216.286 327.318 218.052 332.209 218.665L332.546 214.908Z" fill="black"/>
<path opacity="0.1" d="M285.991 193.038C285.991 193.038 280.4 208.75 280.774 211.139C281.149 213.527 281.892 239.828 281.892 239.828L283.011 239.485L282.636 210.796L285.991 193.038Z" fill="black"/>
<path d="M333.861 212.241L206.138 117.896C205.395 117.215 204.512 116.675 203.541 116.307C202.569 115.939 201.528 115.751 200.477 115.752H195.05C205.895 103.013 211.031 86.9618 209.41 70.8714C207.79 54.781 199.534 39.8631 186.328 29.1595C173.121 18.4559 155.958 12.7726 138.337 13.2684C120.717 13.7643 103.966 20.4019 91.5011 31.8279C79.0357 43.254 71.7943 58.6079 71.2533 74.7591C70.7124 90.9104 76.9127 106.643 88.5899 118.748C100.267 130.853 116.542 138.42 134.096 139.906C151.65 141.392 169.161 136.684 183.059 126.743V131.714C183.058 132.677 183.264 133.631 183.665 134.522C184.066 135.412 184.656 136.221 185.399 136.902L313.121 231.247C313.86 231.93 314.74 232.473 315.709 232.843C316.678 233.213 317.718 233.404 318.768 233.404C319.818 233.404 320.857 233.213 321.827 232.843C322.796 232.473 323.676 231.93 324.415 231.247L333.828 222.627C335.33 221.252 336.177 219.387 336.183 217.44C336.189 215.494 335.354 213.625 333.861 212.241ZM140.42 115.752C131.986 115.752 123.742 113.46 116.73 109.165C109.718 104.871 104.253 98.7665 101.026 91.6247C97.7986 84.483 96.9541 76.6244 98.5994 69.0428C100.245 61.4612 104.306 54.497 110.269 49.031C116.232 43.5649 123.83 39.8425 132.101 38.3344C140.372 36.8263 148.946 37.6003 156.737 40.5585C164.529 43.5167 171.188 48.5263 175.873 54.9537C180.559 61.3811 183.059 68.9376 183.059 76.6678C183.064 81.8019 181.964 86.8865 179.823 91.6307C177.681 96.3749 174.541 100.686 170.581 104.316C166.62 107.947 161.918 110.827 156.743 112.791C151.568 114.754 146.021 115.764 140.42 115.761V115.752Z" fill="url(#paint3_linear)"/>
<path d="M334.797 211.383L207.074 117.039C206.331 116.358 205.448 115.818 204.477 115.45C203.506 115.082 202.464 114.893 201.413 114.894H195.986C206.831 102.155 211.967 86.1041 210.346 70.0137C208.726 53.9233 200.47 39.0054 187.264 28.3018C174.057 17.5982 156.894 11.9149 139.274 12.4108C121.653 12.9066 104.903 19.5443 92.4371 30.9703C79.9717 42.3963 72.7303 57.7502 72.1894 73.9015C71.6484 90.0527 77.8487 105.785 89.5259 117.89C101.203 129.996 117.478 137.563 135.032 139.048C152.586 140.534 170.097 135.826 183.995 125.886V130.856C183.994 131.819 184.2 132.774 184.601 133.664C185.003 134.554 185.592 135.363 186.335 136.045L314.057 230.389C314.796 231.073 315.676 231.615 316.645 231.985C317.615 232.355 318.654 232.546 319.704 232.546C320.754 232.546 321.794 232.355 322.763 231.985C323.732 231.615 324.612 231.073 325.351 230.389L334.764 221.77C336.266 220.394 337.113 218.529 337.119 216.583C337.125 214.636 336.29 212.767 334.797 211.383ZM141.356 114.894C132.922 114.894 124.679 112.602 117.666 108.308C110.654 104.013 105.189 97.9088 101.962 90.767C98.7346 83.6253 97.8902 75.7668 99.5354 68.1851C101.181 60.6035 105.242 53.6393 111.205 48.1733C117.168 42.7072 124.766 38.9848 133.037 37.4767C141.308 35.9687 149.882 36.7427 157.673 39.7009C165.465 42.6591 172.124 47.6686 176.809 54.096C181.495 60.5234 183.995 68.0799 183.995 75.8101C184 80.9443 182.9 86.0288 180.759 90.773C178.617 95.5172 175.477 99.828 171.517 103.459C167.557 107.09 162.854 109.969 157.679 111.933C152.504 113.897 146.957 114.906 141.356 114.903V114.894Z" fill="#110E4C"/>
<path d="M325.299 202.781C325.299 202.781 306.655 183.183 309.275 196.631C311.147 206.194 318.216 211.319 321.57 212.344C324.925 213.369 325.299 202.781 325.299 202.781Z" fill="#FDC2CC"/>
<path d="M329.772 184.679C329.772 184.679 330.146 197.317 332.008 199.024C333.87 200.731 330.89 202.781 330.89 202.781L323.437 201.065C323.437 201.065 325.309 212.335 317.477 210.972C317.477 210.972 322.694 215.41 327.91 216.096C333.127 216.782 332.752 215.071 332.752 215.071L340.575 206.533L329.772 184.679Z" fill="#D6DBE6"/>
<path d="M331.835 215.256L339.396 213.733L338.385 210.538L333.707 208.823L327.625 211.396L331.835 215.256Z" fill="#D6DBE6"/>
<path d="M146.02 92.0073L156.083 84.8929C156.083 84.8929 149.342 86.218 149.534 76.3419C149.531 76.309 149.531 76.2761 149.534 76.2432C149.534 75.3513 149.627 74.3735 149.767 73.2971C151.494 60.1189 137.692 71.7147 137.692 71.7147C137.811 72.8815 137.811 74.0558 137.692 75.2226C137.692 75.2526 137.692 75.2869 137.692 75.317C137.419 78.5645 136.443 81.7295 134.82 84.627C131.072 91.214 146.02 92.0073 146.02 92.0073Z" fill="#FDC2CC"/>
<path opacity="0.1" d="M138.979 73.3915C140.687 74.9138 141.73 77.6799 144.298 77.6799C146.157 77.6836 147.975 77.1838 149.524 76.2432C149.524 75.3513 149.618 74.3735 149.758 73.2971C151.485 60.1189 137.683 71.7147 137.683 71.7147C137.683 71.7147 139.162 71.2473 138.979 73.3915Z" fill="black"/>
<path d="M144.298 77.251C149.539 77.251 153.786 73.3573 153.786 68.5542C153.786 63.751 149.539 59.8573 144.298 59.8573C139.058 59.8573 134.811 63.751 134.811 68.5542C134.811 73.3573 139.058 77.251 144.298 77.251Z" fill="#FDC2CC"/>
<path opacity="0.1" d="M153.398 57.4172C152.854 56.7869 152.225 56.2221 151.527 55.7362C150.432 54.9 149.215 54.0208 147.854 54.098C147.084 54.192 146.344 54.4346 145.683 54.8099C142.291 56.4481 139.48 54.9 135.536 59.7716C134.693 60.8137 133.005 61.0581 132.134 62.1516C131.264 63.2452 130.913 64.6818 130.665 66.0798C130.46 67.0255 130.411 67.994 130.52 68.953C130.624 69.8943 131.128 70.7601 131.924 71.3631C132.831 71.9677 134.081 71.972 134.843 72.7654C135.227 73.2821 135.541 73.8394 135.779 74.425C136.088 74.9825 136.63 75.51 137.248 75.4285C137.865 75.347 138.235 74.7338 138.324 74.142C138.363 73.5295 138.323 72.915 138.207 72.3108C138.09 71.2259 138.24 70.0423 138.937 69.2232C139.405 68.6614 140.106 68.3269 140.57 67.7565C141.683 66.38 141.178 64.0685 142.399 62.7906C142.756 62.4545 143.204 62.2111 143.697 62.0853C144.19 61.9595 144.711 61.9558 145.206 62.0744C146.189 62.3317 147.133 62.7036 148.013 63.1808C149.241 63.7492 150.528 64.2045 151.854 64.5403C152.968 64.819 154.259 65.488 154.638 64.1114C155.232 62.0873 154.675 59.034 153.398 57.4172Z" fill="black"/>
<path d="M153.398 56.9884C152.854 56.358 152.225 55.7932 151.527 55.3073C150.432 54.4711 149.215 53.592 147.854 53.6692C147.084 53.7631 146.344 54.0058 145.683 54.381C142.291 56.0192 139.48 54.4711 135.536 59.3427C134.693 60.3848 133.005 60.6292 132.134 61.7228C131.264 62.8163 130.913 64.2529 130.665 65.6509C130.46 66.5966 130.411 67.5651 130.52 68.5241C130.624 69.4654 131.128 70.3312 131.924 70.9342C132.831 71.5389 134.081 71.5432 134.843 72.3365C135.227 72.8533 135.541 73.4105 135.779 73.9961C136.088 74.5536 136.63 75.0811 137.248 74.9996C137.865 74.9181 138.235 74.3049 138.324 73.7131C138.363 73.1006 138.323 72.4861 138.207 71.8819C138.09 70.797 138.24 69.6134 138.937 68.7943C139.405 68.2325 140.106 67.898 140.57 67.3277C141.683 65.9511 141.178 63.6397 142.399 62.3617C142.756 62.0256 143.204 61.7823 143.697 61.6565C144.19 61.5307 144.711 61.5269 145.206 61.6456C146.189 61.9029 147.133 62.2747 148.013 62.752C149.241 63.3203 150.528 63.7756 151.854 64.1114C152.968 64.3901 154.259 65.0591 154.638 63.6826C155.232 61.6584 154.675 58.6051 153.398 56.9884Z" fill="#865A61"/>
<path opacity="0.1" d="M134.81 96.5831L134.623 103.166C137.342 103.843 140.148 104.185 142.965 104.182C143.433 104.182 143.924 104.182 144.401 104.152C146.9 104.053 149.377 103.682 151.779 103.046H151.826C152.271 102.926 152.71 102.801 153.145 102.664H153.192L153.59 102.535C155.104 102.047 156.575 101.45 157.988 100.751L158.077 100.708C158.231 100.631 158.385 100.554 158.544 100.473L157.819 91.6L158.975 85.5147L152.65 81.5651C152.294 82.0351 151.897 82.477 151.461 82.886C150.837 83.4838 150.106 83.9797 149.3 84.3526C144.762 86.4024 139.597 83.1433 137.028 81.1277L136.443 80.6517C135.779 80.0985 135.4 79.7211 135.4 79.7211L132.237 84.1982L134.81 96.5831Z" fill="black"/>
<path d="M134.81 97.0119L134.623 103.595C137.342 104.272 140.148 104.614 142.965 104.611C143.433 104.611 143.924 104.611 144.401 104.581C146.9 104.482 149.377 104.111 151.779 103.475H151.826C152.271 103.354 152.71 103.23 153.145 103.093H153.192L153.59 102.964C155.104 102.475 156.575 101.879 157.988 101.18L158.077 101.137C158.231 101.06 158.385 100.983 158.544 100.901L157.819 92.0288L158.975 85.9436L152.65 81.994C152.294 82.464 151.897 82.9058 151.461 83.3148C150.837 83.9126 150.106 84.4086 149.3 84.7814C144.762 86.8313 139.597 83.5721 137.028 81.5566L136.443 81.0805C135.779 80.5273 135.4 80.15 135.4 80.15L132.237 84.627L134.81 97.0119Z" fill="#53526B"/>
<path d="M152.345 97.5394C152.345 97.5394 152.691 100.065 153.145 103.084H153.192L153.59 102.956C155.104 102.467 156.574 101.87 157.987 101.172L158.076 101.129C158.231 101.052 158.385 100.974 158.544 100.893C160.618 99.8259 162.555 98.5485 164.317 97.0848L164.472 96.9519C165.438 96.1498 166.346 95.2902 167.19 94.3789L167.288 94.2716C165.618 88.9583 162.142 87.2859 162.142 87.2859C162.142 87.2859 158.979 85.965 158.114 84.121C157.248 82.277 149.608 78.3789 149.608 78.3789V78.4089C149.608 78.7391 149.487 81.7624 149.304 84.8029C149.187 86.7798 149.042 88.7653 148.874 90.0261C148.837 90.4357 148.756 90.8409 148.63 91.2355C148.036 92.5348 152.345 97.5394 152.345 97.5394Z" fill="#555388"/>
</g>
<defs>
<linearGradient id="paint0_linear" x1="240.605" y1="340.755" x2="240.605" y2="16.8491" gradientUnits="userSpaceOnUse">
<stop stop-color="#808080" stop-opacity="0.25"/>
<stop offset="0.54" stop-color="#808080" stop-opacity="0.12"/>
<stop offset="1" stop-color="#808080" stop-opacity="0.1"/>
</linearGradient>
<linearGradient id="paint1_linear" x1="17499.1" y1="26566.6" x2="17499.1" y2="20285.8" gradientUnits="userSpaceOnUse">
<stop stop-color="#808080" stop-opacity="0.25"/>
<stop offset="0.54" stop-color="#808080" stop-opacity="0.12"/>
<stop offset="1" stop-color="#808080" stop-opacity="0.1"/>
</linearGradient>
<linearGradient id="paint2_linear" x1="-81807.4" y1="202266" x2="-81807.4" y2="75814.1" gradientUnits="userSpaceOnUse">
<stop stop-color="#808080" stop-opacity="0.25"/>
<stop offset="0.54" stop-color="#808080" stop-opacity="0.12"/>
<stop offset="1" stop-color="#808080" stop-opacity="0.1"/>
</linearGradient>
<linearGradient id="paint3_linear" x1="126858" y1="125100" x2="126858" y2="12027.6" gradientUnits="userSpaceOnUse">
<stop stop-color="#808080" stop-opacity="0.25"/>
<stop offset="0.54" stop-color="#808080" stop-opacity="0.12"/>
<stop offset="1" stop-color="#808080" stop-opacity="0.1"/>
</linearGradient>
<clipPath id="clip0">
<rect width="521" height="362" fill="white"/>
</clipPath>
</defs>
</svg>
